<?xml version="1.0" encoding="UTF-8" standalone="no"?>
<!DOCTYPE svg PUBLIC "-//W3C//DTD SVG 1.1//EN"
 "http://www.w3.org/Graphics/SVG/1.1/DTD/svg11.dtd">
<!-- Generated by graphviz version 2.38.0 (20140413.2041)
 -->
<!-- Title: DetectorGraph::Lag&lt; T &gt; Pages: 1 -->
<svg width="601pt" height="757pt"
 viewBox="0.00 0.00 601.06 757.00" xmlns="http://www.w3.org/2000/svg" xmlns:xlink="http://www.w3.org/1999/xlink">
<g id="graph0" class="graph" transform="scale(1 1) rotate(0) translate(4 753)">
<title>DetectorGraph::Lag&lt; T &gt;</title>
<!-- Node0 -->
<g id="node1" class="node"><title>Node0</title>
<polygon fill="#bfbfbf" stroke="black" points="161.292,-0.5 161.292,-64.5 288.112,-64.5 288.112,-0.5 161.292,-0.5"/>
<text text-anchor="middle" x="224.702" y="-52.5" font-family="Helvetica,sans-Serif" font-size="10.00">DetectorGraph::Lag&lt; T &gt;</text>
<polyline fill="none" stroke="black" points="161.292,-46.5 288.112,-46.5 "/>
<text text-anchor="middle" x="224.702" y="-34.5" font-family="Helvetica,sans-Serif" font-size="10.00"> </text>
<polyline fill="none" stroke="black" points="161.292,-28.5 288.112,-28.5 "/>
<text text-anchor="start" x="169.292" y="-16.5" font-family="Helvetica,sans-Serif" font-size="10.00">+ Lag()</text>
<text text-anchor="start" x="169.292" y="-6.5" font-family="Helvetica,sans-Serif" font-size="10.00">+ Evaluate()</text>
</g>
<!-- Node1 -->
<g id="node2" class="node"><title>Node1</title>
<g id="a_node2"><a xlink:href="classDetectorGraph_1_1Detector.html" target="_top" xlink:title="A unit of logic in a DetectorGraph. ">
<polygon fill="none" stroke="black" points="0,-102.5 0,-256.5 139.403,-256.5 139.403,-102.5 0,-102.5"/>
<text text-anchor="middle" x="69.7017" y="-244.5" font-family="Helvetica,sans-Serif" font-size="10.00">DetectorGraph::Detector</text>
<polyline fill="none" stroke="black" points="0,-238.5 139.403,-238.5 "/>
<text text-anchor="middle" x="69.7017" y="-226.5" font-family="Helvetica,sans-Serif" font-size="10.00"> </text>
<polyline fill="none" stroke="black" points="0,-220.5 139.403,-220.5 "/>
<text text-anchor="start" x="8" y="-208.5" font-family="Helvetica,sans-Serif" font-size="10.00">+ Detector()</text>
<text text-anchor="start" x="8" y="-198.5" font-family="Helvetica,sans-Serif" font-size="10.00">+ ~Detector()</text>
<text text-anchor="start" x="8" y="-188.5" font-family="Helvetica,sans-Serif" font-size="10.00">+ GetVertexType()</text>
<text text-anchor="start" x="8" y="-178.5" font-family="Helvetica,sans-Serif" font-size="10.00">+ ProcessVertex()</text>
<text text-anchor="start" x="8" y="-168.5" font-family="Helvetica,sans-Serif" font-size="10.00"># Subscribe()</text>
<text text-anchor="start" x="8" y="-158.5" font-family="Helvetica,sans-Serif" font-size="10.00"># SetupPublishing()</text>
<text text-anchor="start" x="8" y="-148.5" font-family="Helvetica,sans-Serif" font-size="10.00"># SetupFuturePublishing()</text>
<text text-anchor="start" x="8" y="-138.5" font-family="Helvetica,sans-Serif" font-size="10.00"># SetupTimeoutPublishing()</text>
<text text-anchor="start" x="8" y="-128.5" font-family="Helvetica,sans-Serif" font-size="10.00"># SetupPeriodicPublishing()</text>
<text text-anchor="start" x="8" y="-118.5" font-family="Helvetica,sans-Serif" font-size="10.00"># BeginEvaluation()</text>
<text text-anchor="start" x="8" y="-108.5" font-family="Helvetica,sans-Serif" font-size="10.00"># CompleteEvaluation()</text>
</a>
</g>
</g>
<!-- Node1&#45;&gt;Node0 -->
<g id="edge1" class="edge"><title>Node1&#45;&gt;Node0</title>
<path fill="none" stroke="midnightblue" d="M147.325,-103.288C147.785,-102.857 148.244,-102.428 148.702,-102 161.941,-89.631 176.695,-76.244 189.656,-64.6138"/>
<polygon fill="none" stroke="midnightblue" points="144.672,-100.978 139.788,-110.379 149.469,-106.076 144.672,-100.978"/>
</g>
<!-- Node2 -->
<g id="node3" class="node"><title>Node2</title>
<g id="a_node3"><a xlink:href="classDetectorGraph_1_1Vertex.html" target="_top" xlink:title="Define behaviors of a vertex in a graph. ">
<polygon fill="none" stroke="black" points="9.31641,-303.5 9.31641,-527.5 130.087,-527.5 130.087,-303.5 9.31641,-303.5"/>
<text text-anchor="middle" x="69.7017" y="-515.5" font-family="Helvetica,sans-Serif" font-size="10.00">DetectorGraph::Vertex</text>
<polyline fill="none" stroke="black" points="9.31641,-509.5 130.087,-509.5 "/>
<text text-anchor="start" x="17.3164" y="-497.5" font-family="Helvetica,sans-Serif" font-size="10.00"># mState</text>
<text text-anchor="start" x="17.3164" y="-487.5" font-family="Helvetica,sans-Serif" font-size="10.00"># mInEdges</text>
<text text-anchor="start" x="17.3164" y="-477.5" font-family="Helvetica,sans-Serif" font-size="10.00"># mOutEdges</text>
<text text-anchor="start" x="17.3164" y="-467.5" font-family="Helvetica,sans-Serif" font-size="10.00"># mFutureInEdges</text>
<text text-anchor="start" x="17.3164" y="-457.5" font-family="Helvetica,sans-Serif" font-size="10.00"># mFutureOutEdges</text>
<polyline fill="none" stroke="black" points="9.31641,-451.5 130.087,-451.5 "/>
<text text-anchor="start" x="17.3164" y="-439.5" font-family="Helvetica,sans-Serif" font-size="10.00">+ Vertex()</text>
<text text-anchor="start" x="17.3164" y="-429.5" font-family="Helvetica,sans-Serif" font-size="10.00">+ ~Vertex()</text>
<text text-anchor="start" x="17.3164" y="-419.5" font-family="Helvetica,sans-Serif" font-size="10.00">+ ProcessVertex()</text>
<text text-anchor="start" x="17.3164" y="-409.5" font-family="Helvetica,sans-Serif" font-size="10.00">+ GetVertexType()</text>
<text text-anchor="start" x="17.3164" y="-399.5" font-family="Helvetica,sans-Serif" font-size="10.00">+ GetName()</text>
<text text-anchor="start" x="17.3164" y="-389.5" font-family="Helvetica,sans-Serif" font-size="10.00">+ InsertEdge()</text>
<text text-anchor="start" x="17.3164" y="-379.5" font-family="Helvetica,sans-Serif" font-size="10.00">+ RemoveEdge()</text>
<text text-anchor="start" x="17.3164" y="-369.5" font-family="Helvetica,sans-Serif" font-size="10.00">+ GetOutEdges()</text>
<text text-anchor="start" x="17.3164" y="-359.5" font-family="Helvetica,sans-Serif" font-size="10.00">+ GetInEdges()</text>
<text text-anchor="start" x="17.3164" y="-349.5" font-family="Helvetica,sans-Serif" font-size="10.00">+ MarkFutureEdge()</text>
<text text-anchor="start" x="17.3164" y="-339.5" font-family="Helvetica,sans-Serif" font-size="10.00">+ GetFutureOutEdges()</text>
<text text-anchor="start" x="17.3164" y="-329.5" font-family="Helvetica,sans-Serif" font-size="10.00">+ GetFutureInEdges()</text>
<text text-anchor="start" x="17.3164" y="-319.5" font-family="Helvetica,sans-Serif" font-size="10.00">+ GetState()</text>
<text text-anchor="start" x="17.3164" y="-309.5" font-family="Helvetica,sans-Serif" font-size="10.00">+ SetState()</text>
</a>
</g>
</g>
<!-- Node2&#45;&gt;Node1 -->
<g id="edge2" class="edge"><title>Node2&#45;&gt;Node1</title>
<path fill="none" stroke="midnightblue" d="M69.7017,-293.318C69.7017,-280.843 69.7017,-268.431 69.7017,-256.651"/>
<polygon fill="none" stroke="midnightblue" points="66.2018,-293.325 69.7017,-303.325 73.2018,-293.325 66.2018,-293.325"/>
</g>
<!-- Node3 -->
<g id="node4" class="node"><title>Node3</title>
<g id="a_node4"><a xlink:href="classDetectorGraph_1_1SubscriberInterface.html" target="_top" xlink:title="A Pure interface that declares the Subscriber behavior. ">
<polygon fill="none" stroke="black" points="157.231,-147.5 157.231,-211.5 292.172,-211.5 292.172,-147.5 157.231,-147.5"/>
<text text-anchor="start" x="165.231" y="-199.5" font-family="Helvetica,sans-Serif" font-size="10.00">DetectorGraph::Subscriber</text>
<text text-anchor="middle" x="224.702" y="-189.5" font-family="Helvetica,sans-Serif" font-size="10.00">Interface&lt; T &gt;</text>
<polyline fill="none" stroke="black" points="157.231,-183.5 292.172,-183.5 "/>
<text text-anchor="middle" x="224.702" y="-171.5" font-family="Helvetica,sans-Serif" font-size="10.00"> </text>
<polyline fill="none" stroke="black" points="157.231,-165.5 292.172,-165.5 "/>
<text text-anchor="start" x="165.231" y="-153.5" font-family="Helvetica,sans-Serif" font-size="10.00">+ Evaluate()</text>
</a>
</g>
</g>
<!-- Node3&#45;&gt;Node0 -->
<g id="edge3" class="edge"><title>Node3&#45;&gt;Node0</title>
<path fill="none" stroke="midnightblue" d="M224.702,-137.19C224.702,-114.085 224.702,-85.759 224.702,-64.5547"/>
<polygon fill="none" stroke="midnightblue" points="221.202,-137.394 224.702,-147.394 228.202,-137.394 221.202,-137.394"/>
</g>
<!-- Node4 -->
<g id="node5" class="node"><title>Node4</title>
<g id="a_node5"><a xlink:href="classDetectorGraph_1_1FuturePublisher.html" target="_top" xlink:title="{DetectorGraph::FuturePublisher\l\&lt; Lagged\&lt; T \&gt; \&gt;\n||+ FuturePublisher()\l+ SetGraph()\l+ PublishOnFutureEvaluation()\l}">
<polygon fill="none" stroke="black" points="309.835,-137.5 309.835,-221.5 467.568,-221.5 467.568,-137.5 309.835,-137.5"/>
<text text-anchor="start" x="317.835" y="-209.5" font-family="Helvetica,sans-Serif" font-size="10.00">DetectorGraph::FuturePublisher</text>
<text text-anchor="middle" x="388.702" y="-199.5" font-family="Helvetica,sans-Serif" font-size="10.00">&lt; Lagged&lt; T &gt; &gt;</text>
<polyline fill="none" stroke="black" points="309.835,-193.5 467.568,-193.5 "/>
<text text-anchor="middle" x="388.702" y="-181.5" font-family="Helvetica,sans-Serif" font-size="10.00"> </text>
<polyline fill="none" stroke="black" points="309.835,-175.5 467.568,-175.5 "/>
<text text-anchor="start" x="317.835" y="-163.5" font-family="Helvetica,sans-Serif" font-size="10.00">+ FuturePublisher()</text>
<text text-anchor="start" x="317.835" y="-153.5" font-family="Helvetica,sans-Serif" font-size="10.00">+ SetGraph()</text>
<text text-anchor="start" x="317.835" y="-143.5" font-family="Helvetica,sans-Serif" font-size="10.00">+ PublishOnFutureEvaluation()</text>
</a>
</g>
</g>
<!-- Node4&#45;&gt;Node0 -->
<g id="edge4" class="edge"><title>Node4&#45;&gt;Node0</title>
<path fill="none" stroke="midnightblue" d="M334.648,-130.709C310.063,-108.972 281.67,-83.8681 259.896,-64.6173"/>
<polygon fill="none" stroke="midnightblue" points="332.334,-133.335 342.145,-137.337 336.971,-128.091 332.334,-133.335"/>
</g>
<!-- Node5 -->
<g id="node6" class="node"><title>Node5</title>
<g id="a_node6"><a xlink:href="classDetectorGraph_1_1Graph.html" target="_top" xlink:title="Implements a graph of Topics &amp; Detectors with Input/Output APIs. ">
<polygon fill="none" stroke="black" points="320.023,-574.5 320.023,-748.5 471.38,-748.5 471.38,-574.5 320.023,-574.5"/>
<text text-anchor="middle" x="395.702" y="-736.5" font-family="Helvetica,sans-Serif" font-size="10.00">DetectorGraph::Graph</text>
<polyline fill="none" stroke="black" points="320.023,-730.5 471.38,-730.5 "/>
<text text-anchor="middle" x="395.702" y="-718.5" font-family="Helvetica,sans-Serif" font-size="10.00"> </text>
<polyline fill="none" stroke="black" points="320.023,-712.5 471.38,-712.5 "/>
<text text-anchor="start" x="328.023" y="-700.5" font-family="Helvetica,sans-Serif" font-size="10.00">+ Graph()</text>
<text text-anchor="start" x="328.023" y="-690.5" font-family="Helvetica,sans-Serif" font-size="10.00">+ ~Graph()</text>
<text text-anchor="start" x="328.023" y="-680.5" font-family="Helvetica,sans-Serif" font-size="10.00">+ ResolveTopic()</text>
<text text-anchor="start" x="328.023" y="-670.5" font-family="Helvetica,sans-Serif" font-size="10.00">+ PushData()</text>
<text text-anchor="start" x="328.023" y="-660.5" font-family="Helvetica,sans-Serif" font-size="10.00">+ EvaluateGraph()</text>
<text text-anchor="start" x="328.023" y="-650.5" font-family="Helvetica,sans-Serif" font-size="10.00">+ HasDataPending()</text>
<text text-anchor="start" x="328.023" y="-640.5" font-family="Helvetica,sans-Serif" font-size="10.00">+ EvaluateIfHasDataPending()</text>
<text text-anchor="start" x="328.023" y="-630.5" font-family="Helvetica,sans-Serif" font-size="10.00">+ GetOutputList()</text>
<text text-anchor="start" x="328.023" y="-620.5" font-family="Helvetica,sans-Serif" font-size="10.00">+ TopoSortGraph()</text>
<text text-anchor="start" x="328.023" y="-610.5" font-family="Helvetica,sans-Serif" font-size="10.00">+ AddVertex()</text>
<text text-anchor="start" x="328.023" y="-600.5" font-family="Helvetica,sans-Serif" font-size="10.00">+ RemoveVertex()</text>
<text text-anchor="start" x="328.023" y="-590.5" font-family="Helvetica,sans-Serif" font-size="10.00">+ GetVertices()</text>
<text text-anchor="start" x="328.023" y="-580.5" font-family="Helvetica,sans-Serif" font-size="10.00">+ GetTopicRegistry()</text>
</a>
</g>
</g>
<!-- Node5&#45;&gt;Node4 -->
<g id="edge5" class="edge"><title>Node5&#45;&gt;Node4</title>
<path fill="none" stroke="#404040" d="M368.386,-574.238C364.584,-558.979 361.283,-543.132 359.239,-528 345.852,-428.9 347.465,-402.304 359.239,-303 361.975,-279.923 367.514,-254.902 373.059,-233.525"/>
<polygon fill="none" stroke="#404040" points="373.113,-233.325 370.798,-226.495 376.212,-221.732 378.527,-228.562 373.113,-233.325"/>
<text text-anchor="middle" x="381.933" y="-412.5" font-family="Helvetica,sans-Serif" font-size="10.00"> #mGraph</text>
</g>
<!-- Node6 -->
<g id="node7" class="node"><title>Node6</title>
<g id="a_node7"><a xlink:href="classDetectorGraph_1_1FuturePublisher.html" target="_top" xlink:title="Publish data to the graph for future evaluation. ">
<polygon fill="none" stroke="black" points="412.338,-378.5 412.338,-452.5 593.065,-452.5 593.065,-378.5 412.338,-378.5"/>
<text text-anchor="middle" x="502.702" y="-440.5" font-family="Helvetica,sans-Serif" font-size="10.00">DetectorGraph::FuturePublisher&lt; T &gt;</text>
<polyline fill="none" stroke="black" points="412.338,-434.5 593.065,-434.5 "/>
<text text-anchor="middle" x="502.702" y="-422.5" font-family="Helvetica,sans-Serif" font-size="10.00"> </text>
<polyline fill="none" stroke="black" points="412.338,-416.5 593.065,-416.5 "/>
<text text-anchor="start" x="420.338" y="-404.5" font-family="Helvetica,sans-Serif" font-size="10.00">+ FuturePublisher()</text>
<text text-anchor="start" x="420.338" y="-394.5" font-family="Helvetica,sans-Serif" font-size="10.00">+ SetGraph()</text>
<text text-anchor="start" x="420.338" y="-384.5" font-family="Helvetica,sans-Serif" font-size="10.00">+ PublishOnFutureEvaluation()</text>
</a>
</g>
</g>
<!-- Node5&#45;&gt;Node6 -->
<g id="edge7" class="edge"><title>Node5&#45;&gt;Node6</title>
<path fill="none" stroke="#404040" d="M433.426,-574.475C449.77,-537.204 468.271,-495.014 482.04,-463.616"/>
<polygon fill="none" stroke="#404040" points="482.067,-463.555 480.813,-456.454 486.886,-452.566 488.14,-459.667 482.067,-463.555"/>
<text text-anchor="middle" x="464.933" y="-548" font-family="Helvetica,sans-Serif" font-size="10.00"> #mGraph</text>
</g>
<!-- Node6&#45;&gt;Node4 -->
<g id="edge6" class="edge"><title>Node6&#45;&gt;Node4</title>
<path fill="none" stroke="orange" d="M480.731,-369.403C459.924,-326.693 428.945,-263.104 408.782,-221.718"/>
<polygon fill="orange" stroke="orange" points="477.613,-370.993 485.139,-378.45 483.906,-367.927 477.613,-370.993"/>
<text text-anchor="middle" x="476.89" y="-277" font-family="Helvetica,sans-Serif" font-size="10.00"> &lt; Lagged&lt; T &gt; &gt;</text>
</g>
</g>
</svg>
