<?xml version="1.0" encoding="UTF-8" standalone="no"?>
<!DOCTYPE svg PUBLIC "-//W3C//DTD SVG 1.1//EN"
 "http://www.w3.org/Graphics/SVG/1.1/DTD/svg11.dtd">
<!-- Generated by graphviz version 2.38.0 (20140413.2041)
 -->
<!-- Title: DetectorGraph::SubscriptionDispatcher&lt; T &gt; Pages: 1 -->
<svg width="187pt" height="214pt"
 viewBox="0.00 0.00 186.86 214.00" xmlns="http://www.w3.org/2000/svg" xmlns:xlink="http://www.w3.org/1999/xlink">
<g id="graph0" class="graph" transform="scale(1 1) rotate(0) translate(4 210)">
<title>DetectorGraph::SubscriptionDispatcher&lt; T &gt;</title>
<!-- Node0 -->
<g id="node1" class="node"><title>Node0</title>
<polygon fill="#bfbfbf" stroke="black" points="18.3423,-0.5 18.3423,-84.5 160.514,-84.5 160.514,-0.5 18.3423,-0.5"/>
<text text-anchor="start" x="26.3423" y="-72.5" font-family="Helvetica,sans-Serif" font-size="10.00">DetectorGraph::Subscription</text>
<text text-anchor="middle" x="89.4282" y="-62.5" font-family="Helvetica,sans-Serif" font-size="10.00">Dispatcher&lt; T &gt;</text>
<polyline fill="none" stroke="black" points="18.3423,-56.5 160.514,-56.5 "/>
<text text-anchor="middle" x="89.4282" y="-44.5" font-family="Helvetica,sans-Serif" font-size="10.00"> </text>
<polyline fill="none" stroke="black" points="18.3423,-38.5 160.514,-38.5 "/>
<text text-anchor="start" x="26.3423" y="-26.5" font-family="Helvetica,sans-Serif" font-size="10.00">+ SubscriptionDispatcher()</text>
<text text-anchor="start" x="26.3423" y="-16.5" font-family="Helvetica,sans-Serif" font-size="10.00">+ Dispatch()</text>
<text text-anchor="start" x="26.3423" y="-6.5" font-family="Helvetica,sans-Serif" font-size="10.00">+ GetTopicVertex()</text>
</g>
<!-- Node1 -->
<g id="node2" class="node"><title>Node1</title>
<g id="a_node2"><a xlink:href="classDetectorGraph_1_1SubscriptionDispatcherInterface.html" target="_top" xlink:title="Internal &#45; Provide interface for a SubscriptionDispatcher ">
<polygon fill="none" stroke="black" points="0,-121.5 0,-205.5 178.856,-205.5 178.856,-121.5 0,-121.5"/>
<text text-anchor="start" x="8" y="-193.5" font-family="Helvetica,sans-Serif" font-size="10.00">DetectorGraph::Subscription</text>
<text text-anchor="middle" x="89.4282" y="-183.5" font-family="Helvetica,sans-Serif" font-size="10.00">DispatcherInterface</text>
<polyline fill="none" stroke="black" points="0,-177.5 178.856,-177.5 "/>
<text text-anchor="middle" x="89.4282" y="-165.5" font-family="Helvetica,sans-Serif" font-size="10.00"> </text>
<polyline fill="none" stroke="black" points="0,-159.5 178.856,-159.5 "/>
<text text-anchor="start" x="8" y="-147.5" font-family="Helvetica,sans-Serif" font-size="10.00">+ ~SubscriptionDispatcherInterface()</text>
<text text-anchor="start" x="8" y="-137.5" font-family="Helvetica,sans-Serif" font-size="10.00">+ GetTopicVertex()</text>
<text text-anchor="start" x="8" y="-127.5" font-family="Helvetica,sans-Serif" font-size="10.00">+ Dispatch()</text>
</a>
</g>
</g>
<!-- Node1&#45;&gt;Node0 -->
<g id="edge1" class="edge"><title>Node1&#45;&gt;Node0</title>
<path fill="none" stroke="midnightblue" d="M89.4282,-111.041C89.4282,-102.241 89.4282,-93.2021 89.4282,-84.7135"/>
<polygon fill="none" stroke="midnightblue" points="85.9283,-111.214 89.4282,-121.214 92.9283,-111.214 85.9283,-111.214"/>
</g>
</g>
</svg>
