<?xml version="1.0" encoding="UTF-8" standalone="no"?>
<!DOCTYPE svg PUBLIC "-//W3C//DTD SVG 1.1//EN"
 "http://www.w3.org/Graphics/SVG/1.1/DTD/svg11.dtd">
<!-- Generated by graphviz version 2.38.0 (20140413.2041)
 -->
<!-- Title: DetectorGraph::TestSplitterDetector&lt; OutA, OutB &gt; Pages: 1 -->
<svg width="710pt" height="1145pt"
 viewBox="0.00 0.00 710.17 1145.00" xmlns="http://www.w3.org/2000/svg" xmlns:xlink="http://www.w3.org/1999/xlink">
<g id="graph0" class="graph" transform="scale(1 1) rotate(0) translate(4 1141)">
<title>DetectorGraph::TestSplitterDetector&lt; OutA, OutB &gt;</title>
<!-- Node0 -->
<g id="node1" class="node"><title>Node0</title>
<polygon fill="#bfbfbf" stroke="black" points="211.399,-0.5 211.399,-74.5 348.004,-74.5 348.004,-0.5 211.399,-0.5"/>
<text text-anchor="start" x="219.399" y="-62.5" font-family="Helvetica,sans-Serif" font-size="10.00">DetectorGraph::TestSplitter</text>
<text text-anchor="middle" x="279.702" y="-52.5" font-family="Helvetica,sans-Serif" font-size="10.00">Detector&lt; OutA, OutB &gt;</text>
<polyline fill="none" stroke="black" points="211.399,-46.5 348.004,-46.5 "/>
<text text-anchor="middle" x="279.702" y="-34.5" font-family="Helvetica,sans-Serif" font-size="10.00"> </text>
<polyline fill="none" stroke="black" points="211.399,-28.5 348.004,-28.5 "/>
<text text-anchor="start" x="219.399" y="-16.5" font-family="Helvetica,sans-Serif" font-size="10.00">+ TestSplitterDetector()</text>
<text text-anchor="start" x="219.399" y="-6.5" font-family="Helvetica,sans-Serif" font-size="10.00">+ Evaluate()</text>
</g>
<!-- Node1 -->
<g id="node2" class="node"><title>Node1</title>
<g id="a_node2"><a xlink:href="classDetectorGraph_1_1Detector.html" target="_top" xlink:title="A unit of logic in a DetectorGraph. ">
<polygon fill="none" stroke="black" points="0,-617.5 0,-771.5 139.403,-771.5 139.403,-617.5 0,-617.5"/>
<text text-anchor="middle" x="69.7017" y="-759.5" font-family="Helvetica,sans-Serif" font-size="10.00">DetectorGraph::Detector</text>
<polyline fill="none" stroke="black" points="0,-753.5 139.403,-753.5 "/>
<text text-anchor="middle" x="69.7017" y="-741.5" font-family="Helvetica,sans-Serif" font-size="10.00"> </text>
<polyline fill="none" stroke="black" points="0,-735.5 139.403,-735.5 "/>
<text text-anchor="start" x="8" y="-723.5" font-family="Helvetica,sans-Serif" font-size="10.00">+ Detector()</text>
<text text-anchor="start" x="8" y="-713.5" font-family="Helvetica,sans-Serif" font-size="10.00">+ ~Detector()</text>
<text text-anchor="start" x="8" y="-703.5" font-family="Helvetica,sans-Serif" font-size="10.00">+ GetVertexType()</text>
<text text-anchor="start" x="8" y="-693.5" font-family="Helvetica,sans-Serif" font-size="10.00">+ ProcessVertex()</text>
<text text-anchor="start" x="8" y="-683.5" font-family="Helvetica,sans-Serif" font-size="10.00"># Subscribe()</text>
<text text-anchor="start" x="8" y="-673.5" font-family="Helvetica,sans-Serif" font-size="10.00"># SetupPublishing()</text>
<text text-anchor="start" x="8" y="-663.5" font-family="Helvetica,sans-Serif" font-size="10.00"># SetupFuturePublishing()</text>
<text text-anchor="start" x="8" y="-653.5" font-family="Helvetica,sans-Serif" font-size="10.00"># SetupTimeoutPublishing()</text>
<text text-anchor="start" x="8" y="-643.5" font-family="Helvetica,sans-Serif" font-size="10.00"># SetupPeriodicPublishing()</text>
<text text-anchor="start" x="8" y="-633.5" font-family="Helvetica,sans-Serif" font-size="10.00"># BeginEvaluation()</text>
<text text-anchor="start" x="8" y="-623.5" font-family="Helvetica,sans-Serif" font-size="10.00"># CompleteEvaluation()</text>
</a>
</g>
</g>
<!-- Node1&#45;&gt;Node0 -->
<g id="edge1" class="edge"><title>Node1&#45;&gt;Node0</title>
<path fill="none" stroke="midnightblue" d="M67.2203,-607.1C65.9641,-556.148 64.7017,-490.411 64.7017,-432 64.7017,-432 64.7017,-432 64.7017,-153.5 64.7017,-85.877 148.424,-57.8691 211.379,-46.3675"/>
<polygon fill="none" stroke="midnightblue" points="63.7293,-607.504 67.4795,-617.413 70.7271,-607.328 63.7293,-607.504"/>
</g>
<!-- Node2 -->
<g id="node3" class="node"><title>Node2</title>
<g id="a_node3"><a xlink:href="classDetectorGraph_1_1Vertex.html" target="_top" xlink:title="Define behaviors of a vertex in a graph. ">
<polygon fill="none" stroke="black" points="69.3164,-912.5 69.3164,-1136.5 190.087,-1136.5 190.087,-912.5 69.3164,-912.5"/>
<text text-anchor="middle" x="129.702" y="-1124.5" font-family="Helvetica,sans-Serif" font-size="10.00">DetectorGraph::Vertex</text>
<polyline fill="none" stroke="black" points="69.3164,-1118.5 190.087,-1118.5 "/>
<text text-anchor="start" x="77.3164" y="-1106.5" font-family="Helvetica,sans-Serif" font-size="10.00"># mState</text>
<text text-anchor="start" x="77.3164" y="-1096.5" font-family="Helvetica,sans-Serif" font-size="10.00"># mInEdges</text>
<text text-anchor="start" x="77.3164" y="-1086.5" font-family="Helvetica,sans-Serif" font-size="10.00"># mOutEdges</text>
<text text-anchor="start" x="77.3164" y="-1076.5" font-family="Helvetica,sans-Serif" font-size="10.00"># mFutureInEdges</text>
<text text-anchor="start" x="77.3164" y="-1066.5" font-family="Helvetica,sans-Serif" font-size="10.00"># mFutureOutEdges</text>
<polyline fill="none" stroke="black" points="69.3164,-1060.5 190.087,-1060.5 "/>
<text text-anchor="start" x="77.3164" y="-1048.5" font-family="Helvetica,sans-Serif" font-size="10.00">+ Vertex()</text>
<text text-anchor="start" x="77.3164" y="-1038.5" font-family="Helvetica,sans-Serif" font-size="10.00">+ ~Vertex()</text>
<text text-anchor="start" x="77.3164" y="-1028.5" font-family="Helvetica,sans-Serif" font-size="10.00">+ ProcessVertex()</text>
<text text-anchor="start" x="77.3164" y="-1018.5" font-family="Helvetica,sans-Serif" font-size="10.00">+ GetVertexType()</text>
<text text-anchor="start" x="77.3164" y="-1008.5" font-family="Helvetica,sans-Serif" font-size="10.00">+ GetName()</text>
<text text-anchor="start" x="77.3164" y="-998.5" font-family="Helvetica,sans-Serif" font-size="10.00">+ InsertEdge()</text>
<text text-anchor="start" x="77.3164" y="-988.5" font-family="Helvetica,sans-Serif" font-size="10.00">+ RemoveEdge()</text>
<text text-anchor="start" x="77.3164" y="-978.5" font-family="Helvetica,sans-Serif" font-size="10.00">+ GetOutEdges()</text>
<text text-anchor="start" x="77.3164" y="-968.5" font-family="Helvetica,sans-Serif" font-size="10.00">+ GetInEdges()</text>
<text text-anchor="start" x="77.3164" y="-958.5" font-family="Helvetica,sans-Serif" font-size="10.00">+ MarkFutureEdge()</text>
<text text-anchor="start" x="77.3164" y="-948.5" font-family="Helvetica,sans-Serif" font-size="10.00">+ GetFutureOutEdges()</text>
<text text-anchor="start" x="77.3164" y="-938.5" font-family="Helvetica,sans-Serif" font-size="10.00">+ GetFutureInEdges()</text>
<text text-anchor="start" x="77.3164" y="-928.5" font-family="Helvetica,sans-Serif" font-size="10.00">+ GetState()</text>
<text text-anchor="start" x="77.3164" y="-918.5" font-family="Helvetica,sans-Serif" font-size="10.00">+ SetState()</text>
</a>
</g>
</g>
<!-- Node2&#45;&gt;Node1 -->
<g id="edge2" class="edge"><title>Node2&#45;&gt;Node1</title>
<path fill="none" stroke="midnightblue" d="M107.583,-902.585C99.5604,-858.728 90.7283,-810.446 83.6118,-771.542"/>
<polygon fill="none" stroke="midnightblue" points="104.146,-903.247 109.388,-912.454 111.032,-901.988 104.146,-903.247"/>
</g>
<!-- Node7 -->
<g id="node8" class="node"><title>Node7</title>
<g id="a_node8"><a xlink:href="classDetectorGraph_1_1BaseTopic.html" target="_top" xlink:title="Provide interface for a topic. ">
<polygon fill="none" stroke="black" points="139.062,-790.5 139.062,-874.5 272.342,-874.5 272.342,-790.5 139.062,-790.5"/>
<text text-anchor="middle" x="205.702" y="-862.5" font-family="Helvetica,sans-Serif" font-size="10.00">DetectorGraph::BaseTopic</text>
<polyline fill="none" stroke="black" points="139.062,-856.5 272.342,-856.5 "/>
<text text-anchor="middle" x="205.702" y="-844.5" font-family="Helvetica,sans-Serif" font-size="10.00"> </text>
<polyline fill="none" stroke="black" points="139.062,-838.5 272.342,-838.5 "/>
<text text-anchor="start" x="147.062" y="-826.5" font-family="Helvetica,sans-Serif" font-size="10.00">+ GetCurrentTopicStates()</text>
<text text-anchor="start" x="147.062" y="-816.5" font-family="Helvetica,sans-Serif" font-size="10.00">+ GetId()</text>
<text text-anchor="start" x="147.062" y="-806.5" font-family="Helvetica,sans-Serif" font-size="10.00">+ GetVertexType()</text>
<text text-anchor="start" x="147.062" y="-796.5" font-family="Helvetica,sans-Serif" font-size="10.00"># MarkChildrenState()</text>
</a>
</g>
</g>
<!-- Node2&#45;&gt;Node7 -->
<g id="edge8" class="edge"><title>Node2&#45;&gt;Node7</title>
<path fill="none" stroke="midnightblue" d="M177.965,-902.842C181.919,-892.957 185.713,-883.473 189.157,-874.863"/>
<polygon fill="none" stroke="midnightblue" points="174.595,-901.842 174.131,-912.426 181.095,-904.442 174.595,-901.842"/>
</g>
<!-- Node3 -->
<g id="node4" class="node"><title>Node3</title>
<g id="a_node4"><a xlink:href="classDetectorGraph_1_1SubscriberInterface.html" target="_top" xlink:title="{DetectorGraph::Subscriber\lInterface\&lt; TestSplitterTrigger\l\&lt; OutA, OutB \&gt; \&gt;\n||+ Evaluate()\l}">
<polygon fill="none" stroke="black" points="504.639,-117.5 504.639,-191.5 648.764,-191.5 648.764,-117.5 504.639,-117.5"/>
<text text-anchor="start" x="512.639" y="-179.5" font-family="Helvetica,sans-Serif" font-size="10.00">DetectorGraph::Subscriber</text>
<text text-anchor="start" x="512.639" y="-169.5" font-family="Helvetica,sans-Serif" font-size="10.00">Interface&lt; TestSplitterTrigger</text>
<text text-anchor="middle" x="576.702" y="-159.5" font-family="Helvetica,sans-Serif" font-size="10.00">&lt; OutA, OutB &gt; &gt;</text>
<polyline fill="none" stroke="black" points="504.639,-153.5 648.764,-153.5 "/>
<text text-anchor="middle" x="576.702" y="-141.5" font-family="Helvetica,sans-Serif" font-size="10.00"> </text>
<polyline fill="none" stroke="black" points="504.639,-135.5 648.764,-135.5 "/>
<text text-anchor="start" x="512.639" y="-123.5" font-family="Helvetica,sans-Serif" font-size="10.00">+ Evaluate()</text>
</a>
</g>
</g>
<!-- Node3&#45;&gt;Node0 -->
<g id="edge3" class="edge"><title>Node3&#45;&gt;Node0</title>
<path fill="none" stroke="midnightblue" d="M495.06,-121.888C448.952,-104.034 391.975,-81.9727 348.21,-65.0269"/>
<polygon fill="none" stroke="midnightblue" points="493.838,-125.168 504.427,-125.515 496.366,-118.64 493.838,-125.168"/>
</g>
<!-- Node4 -->
<g id="node5" class="node"><title>Node4</title>
<g id="a_node5"><a xlink:href="classDetectorGraph_1_1SubscriberInterface.html" target="_top" xlink:title="A Pure interface that declares the Subscriber behavior. ">
<polygon fill="none" stroke="black" points="567.231,-298.5 567.231,-362.5 702.172,-362.5 702.172,-298.5 567.231,-298.5"/>
<text text-anchor="start" x="575.231" y="-350.5" font-family="Helvetica,sans-Serif" font-size="10.00">DetectorGraph::Subscriber</text>
<text text-anchor="middle" x="634.702" y="-340.5" font-family="Helvetica,sans-Serif" font-size="10.00">Interface&lt; T &gt;</text>
<polyline fill="none" stroke="black" points="567.231,-334.5 702.172,-334.5 "/>
<text text-anchor="middle" x="634.702" y="-322.5" font-family="Helvetica,sans-Serif" font-size="10.00"> </text>
<polyline fill="none" stroke="black" points="567.231,-316.5 702.172,-316.5 "/>
<text text-anchor="start" x="575.231" y="-304.5" font-family="Helvetica,sans-Serif" font-size="10.00">+ Evaluate()</text>
</a>
</g>
</g>
<!-- Node4&#45;&gt;Node3 -->
<g id="edge4" class="edge"><title>Node4&#45;&gt;Node3</title>
<path fill="none" stroke="orange" d="M621.147,-288.836C611.349,-259.441 598.228,-220.08 588.786,-191.754"/>
<polygon fill="orange" stroke="orange" points="617.85,-290.012 624.332,-298.392 624.49,-287.799 617.85,-290.012"/>
<text text-anchor="start" x="602.702" y="-227" font-family="Helvetica,sans-Serif" font-size="10.00"> &lt; TestSplitterTrigger</text>
<text text-anchor="middle" x="648.698" y="-217" font-family="Helvetica,sans-Serif" font-size="10.00">&lt; OutA, OutB &gt; &gt;</text>
</g>
<!-- Node5 -->
<g id="node6" class="node"><title>Node5</title>
<g id="a_node6"><a xlink:href="classDetectorGraph_1_1Publisher.html" target="_top" xlink:title="{DetectorGraph::Publisher\l\&lt; OutA \&gt;\n||+ Publisher()\l+ SetGraph()\l+ Publish()\l}">
<polygon fill="none" stroke="black" points="142.286,-112.5 142.286,-196.5 271.118,-196.5 271.118,-112.5 142.286,-112.5"/>
<text text-anchor="start" x="150.286" y="-184.5" font-family="Helvetica,sans-Serif" font-size="10.00">DetectorGraph::Publisher</text>
<text text-anchor="middle" x="206.702" y="-174.5" font-family="Helvetica,sans-Serif" font-size="10.00">&lt; OutA &gt;</text>
<polyline fill="none" stroke="black" points="142.286,-168.5 271.118,-168.5 "/>
<text text-anchor="middle" x="206.702" y="-156.5" font-family="Helvetica,sans-Serif" font-size="10.00"> </text>
<polyline fill="none" stroke="black" points="142.286,-150.5 271.118,-150.5 "/>
<text text-anchor="start" x="150.286" y="-138.5" font-family="Helvetica,sans-Serif" font-size="10.00">+ Publisher()</text>
<text text-anchor="start" x="150.286" y="-128.5" font-family="Helvetica,sans-Serif" font-size="10.00">+ SetGraph()</text>
<text text-anchor="start" x="150.286" y="-118.5" font-family="Helvetica,sans-Serif" font-size="10.00">+ Publish()</text>
</a>
</g>
</g>
<!-- Node5&#45;&gt;Node0 -->
<g id="edge5" class="edge"><title>Node5&#45;&gt;Node0</title>
<path fill="none" stroke="midnightblue" d="M238.22,-103.847C244.409,-94.098 250.792,-84.042 256.641,-74.8287"/>
<polygon fill="none" stroke="midnightblue" points="235.255,-101.989 232.85,-112.307 241.164,-105.74 235.255,-101.989"/>
</g>
<!-- Node6 -->
<g id="node7" class="node"><title>Node6</title>
<g id="a_node7"><a xlink:href="classDetectorGraph_1_1Topic.html" target="_top" xlink:title="{DetectorGraph::Topic\l\&lt; OutA \&gt;\n||+ Topic()\l+ Publish()\l+ DispatchIntoSubscriber()\l+ GetCurrentValues()\l+ HasNewValue()\l+ GetNewValue()\l+ GetCurrentTopicStates()\l+ GetId()\l+ ~Topic()\l+ ProcessVertex()\l}">
<polygon fill="none" stroke="black" points="92.3706,-253.5 92.3706,-407.5 227.033,-407.5 227.033,-253.5 92.3706,-253.5"/>
<text text-anchor="start" x="100.371" y="-395.5" font-family="Helvetica,sans-Serif" font-size="10.00">DetectorGraph::Topic</text>
<text text-anchor="middle" x="159.702" y="-385.5" font-family="Helvetica,sans-Serif" font-size="10.00">&lt; OutA &gt;</text>
<polyline fill="none" stroke="black" points="92.3706,-379.5 227.033,-379.5 "/>
<text text-anchor="middle" x="159.702" y="-367.5" font-family="Helvetica,sans-Serif" font-size="10.00"> </text>
<polyline fill="none" stroke="black" points="92.3706,-361.5 227.033,-361.5 "/>
<text text-anchor="start" x="100.371" y="-349.5" font-family="Helvetica,sans-Serif" font-size="10.00">+ Topic()</text>
<text text-anchor="start" x="100.371" y="-339.5" font-family="Helvetica,sans-Serif" font-size="10.00">+ Publish()</text>
<text text-anchor="start" x="100.371" y="-329.5" font-family="Helvetica,sans-Serif" font-size="10.00">+ DispatchIntoSubscriber()</text>
<text text-anchor="start" x="100.371" y="-319.5" font-family="Helvetica,sans-Serif" font-size="10.00">+ GetCurrentValues()</text>
<text text-anchor="start" x="100.371" y="-309.5" font-family="Helvetica,sans-Serif" font-size="10.00">+ HasNewValue()</text>
<text text-anchor="start" x="100.371" y="-299.5" font-family="Helvetica,sans-Serif" font-size="10.00">+ GetNewValue()</text>
<text text-anchor="start" x="100.371" y="-289.5" font-family="Helvetica,sans-Serif" font-size="10.00">+ GetCurrentTopicStates()</text>
<text text-anchor="start" x="100.371" y="-279.5" font-family="Helvetica,sans-Serif" font-size="10.00">+ GetId()</text>
<text text-anchor="start" x="100.371" y="-269.5" font-family="Helvetica,sans-Serif" font-size="10.00">+ ~Topic()</text>
<text text-anchor="start" x="100.371" y="-259.5" font-family="Helvetica,sans-Serif" font-size="10.00">+ ProcessVertex()</text>
</a>
</g>
</g>
<!-- Node6&#45;&gt;Node5 -->
<g id="edge6" class="edge"><title>Node6&#45;&gt;Node5</title>
<path fill="none" stroke="#404040" d="M179.383,-253.372C182.771,-240.55 186.294,-227.387 189.687,-215 190.268,-212.877 190.866,-210.713 191.473,-208.528"/>
<polygon fill="none" stroke="#404040" points="191.533,-208.311 189.303,-201.454 194.774,-196.757 197.005,-203.614 191.533,-208.311"/>
<text text-anchor="middle" x="209.709" y="-222" font-family="Helvetica,sans-Serif" font-size="10.00"> #mTopic</text>
</g>
<!-- Node7&#45;&gt;Node6 -->
<g id="edge7" class="edge"><title>Node7&#45;&gt;Node6</title>
<path fill="none" stroke="midnightblue" d="M199.109,-780.454C193.189,-733.393 184.554,-661.571 178.702,-599 172.675,-534.566 167.591,-461.24 164.204,-407.675"/>
<polygon fill="none" stroke="midnightblue" points="195.64,-780.918 200.366,-790.4 202.584,-780.04 195.64,-780.918"/>
</g>
<!-- Node8 -->
<g id="node9" class="node"><title>Node8</title>
<g id="a_node9"><a xlink:href="classDetectorGraph_1_1Topic.html" target="_top" xlink:title="Manage data and its handler. ">
<polygon fill="none" stroke="black" points="187.371,-454.5 187.371,-598.5 322.033,-598.5 322.033,-454.5 187.371,-454.5"/>
<text text-anchor="middle" x="254.702" y="-586.5" font-family="Helvetica,sans-Serif" font-size="10.00">DetectorGraph::Topic&lt; T &gt;</text>
<polyline fill="none" stroke="black" points="187.371,-580.5 322.033,-580.5 "/>
<text text-anchor="middle" x="254.702" y="-568.5" font-family="Helvetica,sans-Serif" font-size="10.00"> </text>
<polyline fill="none" stroke="black" points="187.371,-562.5 322.033,-562.5 "/>
<text text-anchor="start" x="195.371" y="-550.5" font-family="Helvetica,sans-Serif" font-size="10.00">+ Topic()</text>
<text text-anchor="start" x="195.371" y="-540.5" font-family="Helvetica,sans-Serif" font-size="10.00">+ Publish()</text>
<text text-anchor="start" x="195.371" y="-530.5" font-family="Helvetica,sans-Serif" font-size="10.00">+ DispatchIntoSubscriber()</text>
<text text-anchor="start" x="195.371" y="-520.5" font-family="Helvetica,sans-Serif" font-size="10.00">+ GetCurrentValues()</text>
<text text-anchor="start" x="195.371" y="-510.5" font-family="Helvetica,sans-Serif" font-size="10.00">+ HasNewValue()</text>
<text text-anchor="start" x="195.371" y="-500.5" font-family="Helvetica,sans-Serif" font-size="10.00">+ GetNewValue()</text>
<text text-anchor="start" x="195.371" y="-490.5" font-family="Helvetica,sans-Serif" font-size="10.00">+ GetCurrentTopicStates()</text>
<text text-anchor="start" x="195.371" y="-480.5" font-family="Helvetica,sans-Serif" font-size="10.00">+ GetId()</text>
<text text-anchor="start" x="195.371" y="-470.5" font-family="Helvetica,sans-Serif" font-size="10.00">+ ~Topic()</text>
<text text-anchor="start" x="195.371" y="-460.5" font-family="Helvetica,sans-Serif" font-size="10.00">+ ProcessVertex()</text>
</a>
</g>
</g>
<!-- Node7&#45;&gt;Node8 -->
<g id="edge10" class="edge"><title>Node7&#45;&gt;Node8</title>
<path fill="none" stroke="midnightblue" d="M213.957,-780.285C221.981,-730.503 234.237,-654.465 243.212,-598.784"/>
<polygon fill="none" stroke="midnightblue" points="210.497,-779.755 212.361,-790.185 217.408,-780.869 210.497,-779.755"/>
</g>
<!-- Node11 -->
<g id="node12" class="node"><title>Node11</title>
<g id="a_node12"><a xlink:href="classDetectorGraph_1_1Topic.html" target="_top" xlink:title="{DetectorGraph::Topic\l\&lt; OutB \&gt;\n||+ Topic()\l+ Publish()\l+ DispatchIntoSubscriber()\l+ GetCurrentValues()\l+ HasNewValue()\l+ GetNewValue()\l+ GetCurrentTopicStates()\l+ GetId()\l+ ~Topic()\l+ ProcessVertex()\l}">
<polygon fill="none" stroke="black" points="414.371,-253.5 414.371,-407.5 549.033,-407.5 549.033,-253.5 414.371,-253.5"/>
<text text-anchor="start" x="422.371" y="-395.5" font-family="Helvetica,sans-Serif" font-size="10.00">DetectorGraph::Topic</text>
<text text-anchor="middle" x="481.702" y="-385.5" font-family="Helvetica,sans-Serif" font-size="10.00">&lt; OutB &gt;</text>
<polyline fill="none" stroke="black" points="414.371,-379.5 549.033,-379.5 "/>
<text text-anchor="middle" x="481.702" y="-367.5" font-family="Helvetica,sans-Serif" font-size="10.00"> </text>
<polyline fill="none" stroke="black" points="414.371,-361.5 549.033,-361.5 "/>
<text text-anchor="start" x="422.371" y="-349.5" font-family="Helvetica,sans-Serif" font-size="10.00">+ Topic()</text>
<text text-anchor="start" x="422.371" y="-339.5" font-family="Helvetica,sans-Serif" font-size="10.00">+ Publish()</text>
<text text-anchor="start" x="422.371" y="-329.5" font-family="Helvetica,sans-Serif" font-size="10.00">+ DispatchIntoSubscriber()</text>
<text text-anchor="start" x="422.371" y="-319.5" font-family="Helvetica,sans-Serif" font-size="10.00">+ GetCurrentValues()</text>
<text text-anchor="start" x="422.371" y="-309.5" font-family="Helvetica,sans-Serif" font-size="10.00">+ HasNewValue()</text>
<text text-anchor="start" x="422.371" y="-299.5" font-family="Helvetica,sans-Serif" font-size="10.00">+ GetNewValue()</text>
<text text-anchor="start" x="422.371" y="-289.5" font-family="Helvetica,sans-Serif" font-size="10.00">+ GetCurrentTopicStates()</text>
<text text-anchor="start" x="422.371" y="-279.5" font-family="Helvetica,sans-Serif" font-size="10.00">+ GetId()</text>
<text text-anchor="start" x="422.371" y="-269.5" font-family="Helvetica,sans-Serif" font-size="10.00">+ ~Topic()</text>
<text text-anchor="start" x="422.371" y="-259.5" font-family="Helvetica,sans-Serif" font-size="10.00">+ ProcessVertex()</text>
</a>
</g>
</g>
<!-- Node7&#45;&gt;Node11 -->
<g id="edge14" class="edge"><title>Node7&#45;&gt;Node11</title>
<path fill="none" stroke="midnightblue" d="M236.952,-781.727C238.919,-778.448 240.85,-775.184 242.702,-772 315.964,-646.017 395.673,-496.314 442.028,-407.866"/>
<polygon fill="none" stroke="midnightblue" points="233.885,-780.035 231.697,-790.401 239.872,-783.662 233.885,-780.035"/>
</g>
<!-- Node8&#45;&gt;Node6 -->
<g id="edge9" class="edge"><title>Node8&#45;&gt;Node6</title>
<path fill="none" stroke="orange" d="M215.446,-445.336C209.321,-432.828 203.008,-419.935 196.93,-407.524"/>
<polygon fill="orange" stroke="orange" points="212.325,-446.921 219.867,-454.363 218.612,-443.843 212.325,-446.921"/>
<text text-anchor="middle" x="231.83" y="-428" font-family="Helvetica,sans-Serif" font-size="10.00"> &lt; OutA &gt;</text>
</g>
<!-- Node8&#45;&gt;Node11 -->
<g id="edge15" class="edge"><title>Node8&#45;&gt;Node11</title>
<path fill="none" stroke="orange" d="M329.403,-447.737C338.898,-439.832 348.83,-432.38 358.899,-426 377.725,-414.072 387.034,-420.175 405.702,-408 408.524,-406.159 411.326,-404.199 414.095,-402.145"/>
<polygon fill="orange" stroke="orange" points="326.857,-445.309 321.535,-454.47 331.409,-450.627 326.857,-445.309"/>
<text text-anchor="middle" x="381.103" y="-428" font-family="Helvetica,sans-Serif" font-size="10.00"> &lt; OutB &gt;</text>
</g>
<!-- Node9 -->
<g id="node10" class="node"><title>Node9</title>
<g id="a_node10"><a xlink:href="classDetectorGraph_1_1Publisher.html" target="_top" xlink:title="Base class that implements a Publisher behavior. ">
<polygon fill="none" stroke="black" points="244.789,-293.5 244.789,-367.5 396.614,-367.5 396.614,-293.5 244.789,-293.5"/>
<text text-anchor="middle" x="320.702" y="-355.5" font-family="Helvetica,sans-Serif" font-size="10.00">DetectorGraph::Publisher&lt; T &gt;</text>
<polyline fill="none" stroke="black" points="244.789,-349.5 396.614,-349.5 "/>
<text text-anchor="start" x="252.789" y="-337.5" font-family="Helvetica,sans-Serif" font-size="10.00"># mTopic</text>
<polyline fill="none" stroke="black" points="244.789,-331.5 396.614,-331.5 "/>
<text text-anchor="start" x="252.789" y="-319.5" font-family="Helvetica,sans-Serif" font-size="10.00">+ Publisher()</text>
<text text-anchor="start" x="252.789" y="-309.5" font-family="Helvetica,sans-Serif" font-size="10.00">+ SetGraph()</text>
<text text-anchor="start" x="252.789" y="-299.5" font-family="Helvetica,sans-Serif" font-size="10.00">+ Publish()</text>
</a>
</g>
</g>
<!-- Node9&#45;&gt;Node5 -->
<g id="edge11" class="edge"><title>Node9&#45;&gt;Node5</title>
<path fill="none" stroke="orange" d="M291.48,-284.899C273.672,-257.719 251.077,-223.231 233.692,-196.696"/>
<polygon fill="orange" stroke="orange" points="288.673,-287.001 297.081,-293.447 294.528,-283.164 288.673,-287.001"/>
<text text-anchor="middle" x="278.83" y="-222" font-family="Helvetica,sans-Serif" font-size="10.00"> &lt; OutA &gt;</text>
</g>
<!-- Node10 -->
<g id="node11" class="node"><title>Node10</title>
<g id="a_node11"><a xlink:href="classDetectorGraph_1_1Publisher.html" target="_top" xlink:title="{DetectorGraph::Publisher\l\&lt; OutB \&gt;\n||+ Publisher()\l+ SetGraph()\l+ Publish()\l}">
<polygon fill="none" stroke="black" points="289.286,-112.5 289.286,-196.5 418.118,-196.5 418.118,-112.5 289.286,-112.5"/>
<text text-anchor="start" x="297.286" y="-184.5" font-family="Helvetica,sans-Serif" font-size="10.00">DetectorGraph::Publisher</text>
<text text-anchor="middle" x="353.702" y="-174.5" font-family="Helvetica,sans-Serif" font-size="10.00">&lt; OutB &gt;</text>
<polyline fill="none" stroke="black" points="289.286,-168.5 418.118,-168.5 "/>
<text text-anchor="middle" x="353.702" y="-156.5" font-family="Helvetica,sans-Serif" font-size="10.00"> </text>
<polyline fill="none" stroke="black" points="289.286,-150.5 418.118,-150.5 "/>
<text text-anchor="start" x="297.286" y="-138.5" font-family="Helvetica,sans-Serif" font-size="10.00">+ Publisher()</text>
<text text-anchor="start" x="297.286" y="-128.5" font-family="Helvetica,sans-Serif" font-size="10.00">+ SetGraph()</text>
<text text-anchor="start" x="297.286" y="-118.5" font-family="Helvetica,sans-Serif" font-size="10.00">+ Publish()</text>
</a>
</g>
</g>
<!-- Node9&#45;&gt;Node10 -->
<g id="edge16" class="edge"><title>Node9&#45;&gt;Node10</title>
<path fill="none" stroke="orange" d="M329.43,-283.48C334.541,-256.527 340.943,-222.772 345.889,-196.696"/>
<polygon fill="orange" stroke="orange" points="325.964,-282.97 327.539,-293.447 332.841,-284.274 325.964,-282.97"/>
<text text-anchor="middle" x="364.103" y="-222" font-family="Helvetica,sans-Serif" font-size="10.00"> &lt; OutB &gt;</text>
</g>
<!-- Node10&#45;&gt;Node0 -->
<g id="edge12" class="edge"><title>Node10&#45;&gt;Node0</title>
<path fill="none" stroke="midnightblue" d="M321.751,-103.847C315.478,-94.098 309.007,-84.042 303.078,-74.8287"/>
<polygon fill="none" stroke="midnightblue" points="318.84,-105.792 327.195,-112.307 324.727,-102.004 318.84,-105.792"/>
</g>
<!-- Node11&#45;&gt;Node10 -->
<g id="edge13" class="edge"><title>Node11&#45;&gt;Node10</title>
<path fill="none" stroke="#404040" d="M425.745,-253.434C414.048,-237.534 401.987,-221.139 391.159,-206.418"/>
<polygon fill="none" stroke="#404040" points="390.989,-206.188 384.212,-203.725 383.878,-196.521 390.656,-198.984 390.989,-206.188"/>
<text text-anchor="middle" x="430.709" y="-222" font-family="Helvetica,sans-Serif" font-size="10.00"> #mTopic</text>
</g>
</g>
</svg>
