<?xml version="1.0" encoding="UTF-8" standalone="no"?>
<!DOCTYPE svg PUBLIC "-//W3C//DTD SVG 1.1//EN"
 "http://www.w3.org/Graphics/SVG/1.1/DTD/svg11.dtd">
<!-- Generated by graphviz version 2.38.0 (20140413.2041)
 -->
<!-- Title: DetectorGraph::GraphInputDispatcher&lt; T &gt; Pages: 1 -->
<svg width="182pt" height="194pt"
 viewBox="0.00 0.00 181.86 194.00" xmlns="http://www.w3.org/2000/svg" xmlns:xlink="http://www.w3.org/1999/xlink">
<g id="graph0" class="graph" transform="scale(1 1) rotate(0) translate(4 190)">
<title>DetectorGraph::GraphInputDispatcher&lt; T &gt;</title>
<!-- Node0 -->
<g id="node1" class="node"><title>Node0</title>
<polygon fill="#bfbfbf" stroke="black" points="18.3423,-0.5 18.3423,-74.5 155.519,-74.5 155.519,-0.5 18.3423,-0.5"/>
<text text-anchor="start" x="26.3423" y="-62.5" font-family="Helvetica,sans-Serif" font-size="10.00">DetectorGraph::GraphInput</text>
<text text-anchor="middle" x="86.9307" y="-52.5" font-family="Helvetica,sans-Serif" font-size="10.00">Dispatcher&lt; T &gt;</text>
<polyline fill="none" stroke="black" points="18.3423,-46.5 155.519,-46.5 "/>
<text text-anchor="middle" x="86.9307" y="-34.5" font-family="Helvetica,sans-Serif" font-size="10.00"> </text>
<polyline fill="none" stroke="black" points="18.3423,-28.5 155.519,-28.5 "/>
<text text-anchor="start" x="26.3423" y="-16.5" font-family="Helvetica,sans-Serif" font-size="10.00">+ GraphInputDispatcher()</text>
<text text-anchor="start" x="26.3423" y="-6.5" font-family="Helvetica,sans-Serif" font-size="10.00">+ Dispatch()</text>
</g>
<!-- Node1 -->
<g id="node2" class="node"><title>Node1</title>
<g id="a_node2"><a xlink:href="classDetectorGraph_1_1GraphInputDispatcherInterface.html" target="_top" xlink:title="Internal &#45; Provide interface for a GraphInputDispatcher ">
<polygon fill="none" stroke="black" points="0,-111.5 0,-185.5 173.861,-185.5 173.861,-111.5 0,-111.5"/>
<text text-anchor="start" x="8" y="-173.5" font-family="Helvetica,sans-Serif" font-size="10.00">DetectorGraph::GraphInput</text>
<text text-anchor="middle" x="86.9307" y="-163.5" font-family="Helvetica,sans-Serif" font-size="10.00">DispatcherInterface</text>
<polyline fill="none" stroke="black" points="0,-157.5 173.861,-157.5 "/>
<text text-anchor="middle" x="86.9307" y="-145.5" font-family="Helvetica,sans-Serif" font-size="10.00"> </text>
<polyline fill="none" stroke="black" points="0,-139.5 173.861,-139.5 "/>
<text text-anchor="start" x="8" y="-127.5" font-family="Helvetica,sans-Serif" font-size="10.00">+ ~GraphInputDispatcherInterface()</text>
<text text-anchor="start" x="8" y="-117.5" font-family="Helvetica,sans-Serif" font-size="10.00">+ Dispatch()</text>
</a>
</g>
</g>
<!-- Node1&#45;&gt;Node0 -->
<g id="edge1" class="edge"><title>Node1&#45;&gt;Node0</title>
<path fill="none" stroke="midnightblue" d="M86.9307,-101.03C86.9307,-92.2017 86.9307,-83.0859 86.9307,-74.6369"/>
<polygon fill="none" stroke="midnightblue" points="83.4308,-101.205 86.9307,-111.205 90.4308,-101.205 83.4308,-101.205"/>
</g>
</g>
</svg>
