<?xml version="1.0" encoding="UTF-8" standalone="no"?>
<!DOCTYPE svg PUBLIC "-//W3C//DTD SVG 1.1//EN"
 "http://www.w3.org/Graphics/SVG/1.1/DTD/svg11.dtd">
<!-- Generated by graphviz version 2.38.0 (20140413.2041)
 -->
<!-- Title: examples Pages: 1 -->
<svg width="116pt" height="188pt"
 viewBox="0.00 0.00 116.31 188.00" xmlns="http://www.w3.org/2000/svg" xmlns:xlink="http://www.w3.org/1999/xlink">
<g id="graph0" class="graph" transform="scale(1 1) rotate(0) translate(4 184)">
<title>examples</title>
<!-- dir_d28a4824dc47e487b107a5db32ef43c4 -->
<g id="node1" class="node"><title>dir_d28a4824dc47e487b107a5db32ef43c4</title>
<g id="a_node1"><a xlink:href="dir_d28a4824dc47e487b107a5db32ef43c4.html" target="_top" xlink:title="examples">
<polygon fill="#eeeeff" stroke="black" points="82.6058,-180 24.0094,-180 24.0094,-144 82.6058,-144 82.6058,-180"/>
<text text-anchor="middle" x="53.3076" y="-159" font-family="Helvetica,sans-Serif" font-size="10.00">examples</text>
</a>
</g>
</g>
<!-- dir_101e12ba6595929da6a45aaeceecbab6 -->
<g id="node2" class="node"><title>dir_101e12ba6595929da6a45aaeceecbab6</title>
<g id="a_node2"><a xlink:href="dir_101e12ba6595929da6a45aaeceecbab6.html" target="_top" xlink:title="platform_standalone">
<polygon fill="none" stroke="black" points="106.424,-36 0.191691,-36 0.191691,-0 106.424,-0 106.424,-36"/>
<text text-anchor="middle" x="53.3076" y="-15" font-family="Helvetica,sans-Serif" font-size="10.00">platform_standalone</text>
</a>
</g>
</g>
<!-- dir_d28a4824dc47e487b107a5db32ef43c4&#45;&gt;dir_101e12ba6595929da6a45aaeceecbab6 -->
<g id="edge1" class="edge"><title>dir_d28a4824dc47e487b107a5db32ef43c4&#45;&gt;dir_101e12ba6595929da6a45aaeceecbab6</title>
<path fill="none" stroke="black" d="M50.0593,-143.888C48.2618,-133.542 46.2129,-120.063 45.3076,-108 44.1102,-92.0449 44.1102,-87.9551 45.3076,-72 45.9442,-63.5179 47.1461,-54.3361 48.4284,-46.0356"/>
<polygon fill="black" stroke="black" points="51.8912,-46.5472 50.0593,-36.1119 44.9839,-45.412 51.8912,-46.5472"/>
<g id="a_edge1&#45;headlabel"><a xlink:href="dir_000000_000002.html" target="_top" xlink:title="3">
<text text-anchor="middle" x="54.1101" y="-47.5546" font-family="Helvetica,sans-Serif" font-size="10.00">3</text>
</a>
</g>
</g>
<!-- dir_d44c64559bbebec7f509842c48db8b23 -->
<g id="node3" class="node"><title>dir_d44c64559bbebec7f509842c48db8b23</title>
<g id="a_node3"><a xlink:href="dir_d44c64559bbebec7f509842c48db8b23.html" target="_top" xlink:title="include">
<polygon fill="none" stroke="black" points="108.308,-108 54.3076,-108 54.3076,-72 108.308,-72 108.308,-108"/>
<text text-anchor="middle" x="81.3076" y="-87" font-family="Helvetica,sans-Serif" font-size="10.00">include</text>
</a>
</g>
</g>
<!-- dir_d28a4824dc47e487b107a5db32ef43c4&#45;&gt;dir_d44c64559bbebec7f509842c48db8b23 -->
<g id="edge2" class="edge"><title>dir_d28a4824dc47e487b107a5db32ef43c4&#45;&gt;dir_d44c64559bbebec7f509842c48db8b23</title>
<path fill="none" stroke="black" d="M60.229,-143.697C63.3823,-135.813 67.1859,-126.304 70.6891,-117.546"/>
<polygon fill="black" stroke="black" points="74.0016,-118.689 74.4659,-108.104 67.5022,-116.089 74.0016,-118.689"/>
<g id="a_edge2&#45;headlabel"><a xlink:href="dir_000000_000001.html" target="_top" xlink:title="29">
<text text-anchor="middle" x="75.3028" y="-120.081" font-family="Helvetica,sans-Serif" font-size="10.00">29</text>
</a>
</g>
</g>
<!-- dir_d44c64559bbebec7f509842c48db8b23&#45;&gt;dir_101e12ba6595929da6a45aaeceecbab6 -->
<g id="edge3" class="edge"><title>dir_d44c64559bbebec7f509842c48db8b23&#45;&gt;dir_101e12ba6595929da6a45aaeceecbab6</title>
<path fill="none" stroke="black" d="M74.3863,-71.6966C71.2329,-63.8132 67.4293,-54.3042 63.9262,-45.5464"/>
<polygon fill="black" stroke="black" points="67.113,-44.0892 60.1494,-36.1043 60.6136,-46.689 67.113,-44.0892"/>
<g id="a_edge3&#45;headlabel"><a xlink:href="dir_000001_000002.html" target="_top" xlink:title="17">
<text text-anchor="middle" x="71.0841" y="-43.3723" font-family="Helvetica,sans-Serif" font-size="10.00">17</text>
</a>
</g>
</g>
</g>
</svg>
