<?xml version="1.0" encoding="UTF-8" standalone="no"?>
<!DOCTYPE svg PUBLIC "-//W3C//DTD SVG 1.1//EN"
 "http://www.w3.org/Graphics/SVG/1.1/DTD/svg11.dtd">
<!-- Generated by graphviz version 2.38.0 (20140413.2041)
 -->
<!-- Title: examples Pages: 1 -->
<svg width="134pt" height="260pt"
 viewBox="0.00 0.00 134.31 260.00" xmlns="http://www.w3.org/2000/svg" xmlns:xlink="http://www.w3.org/1999/xlink">
<g id="graph0" class="graph" transform="scale(1 1) rotate(0) translate(4 256)">
<title>examples</title>
<!-- dir_d28a4824dc47e487b107a5db32ef43c4 -->
<g id="node1" class="node"><title>dir_d28a4824dc47e487b107a5db32ef43c4</title>
<g id="a_node1"><a xlink:href="dir_d28a4824dc47e487b107a5db32ef43c4.html" target="_top" xlink:title="examples">
<polygon fill="#eeeeff" stroke="black" points="111.298,-252 52.7018,-252 52.7018,-216 111.298,-216 111.298,-252"/>
<text text-anchor="middle" x="82" y="-231" font-family="Helvetica,sans-Serif" font-size="10.00">examples</text>
</a>
</g>
</g>
<!-- dir_23ec12649285f9fabf3a6b7380226c28 -->
<g id="node2" class="node"><title>dir_23ec12649285f9fabf3a6b7380226c28</title>
<g id="a_node2"><a xlink:href="dir_23ec12649285f9fabf3a6b7380226c28.html" target="_top" xlink:title="util">
<polygon fill="none" stroke="black" points="54,-180 0,-180 0,-144 54,-144 54,-180"/>
<text text-anchor="middle" x="27" y="-159" font-family="Helvetica,sans-Serif" font-size="10.00">util</text>
</a>
</g>
</g>
<!-- dir_d28a4824dc47e487b107a5db32ef43c4&#45;&gt;dir_23ec12649285f9fabf3a6b7380226c28 -->
<g id="edge3" class="edge"><title>dir_d28a4824dc47e487b107a5db32ef43c4&#45;&gt;dir_23ec12649285f9fabf3a6b7380226c28</title>
<path fill="none" stroke="black" d="M68.4045,-215.697C61.8773,-207.389 53.932,-197.277 46.7534,-188.141"/>
<polygon fill="black" stroke="black" points="49.3695,-185.805 40.4391,-180.104 43.8653,-190.13 49.3695,-185.805"/>
<g id="a_edge3&#45;headlabel"><a xlink:href="dir_000000_000005.html" target="_top" xlink:title="4">
<text text-anchor="middle" x="53.8229" y="-183.877" font-family="Helvetica,sans-Serif" font-size="10.00">4</text>
</a>
</g>
</g>
<!-- dir_101e12ba6595929da6a45aaeceecbab6 -->
<g id="node3" class="node"><title>dir_101e12ba6595929da6a45aaeceecbab6</title>
<g id="a_node3"><a xlink:href="dir_101e12ba6595929da6a45aaeceecbab6.html" target="_top" xlink:title="platform_standalone">
<polygon fill="none" stroke="black" points="126.116,-36 19.8841,-36 19.8841,-0 126.116,-0 126.116,-36"/>
<text text-anchor="middle" x="73" y="-15" font-family="Helvetica,sans-Serif" font-size="10.00">platform_standalone</text>
</a>
</g>
</g>
<!-- dir_d28a4824dc47e487b107a5db32ef43c4&#45;&gt;dir_101e12ba6595929da6a45aaeceecbab6 -->
<g id="edge4" class="edge"><title>dir_d28a4824dc47e487b107a5db32ef43c4&#45;&gt;dir_101e12ba6595929da6a45aaeceecbab6</title>
<path fill="none" stroke="black" d="M90.018,-215.736C102.759,-185.884 124.661,-122.929 109,-72 105.991,-62.2153 100.493,-52.6161 94.6843,-44.3336"/>
<polygon fill="black" stroke="black" points="97.4072,-42.1306 88.6099,-36.2264 91.8052,-46.3279 97.4072,-42.1306"/>
<g id="a_edge4&#45;headlabel"><a xlink:href="dir_000000_000002.html" target="_top" xlink:title="3">
<text text-anchor="middle" x="101.835" y="-40.3048" font-family="Helvetica,sans-Serif" font-size="10.00">3</text>
</a>
</g>
</g>
<!-- dir_d44c64559bbebec7f509842c48db8b23 -->
<g id="node4" class="node"><title>dir_d44c64559bbebec7f509842c48db8b23</title>
<g id="a_node4"><a xlink:href="dir_d44c64559bbebec7f509842c48db8b23.html" target="_top" xlink:title="include">
<polygon fill="none" stroke="black" points="100,-108 46,-108 46,-72 100,-72 100,-108"/>
<text text-anchor="middle" x="73" y="-87" font-family="Helvetica,sans-Serif" font-size="10.00">include</text>
</a>
</g>
</g>
<!-- dir_d28a4824dc47e487b107a5db32ef43c4&#45;&gt;dir_d44c64559bbebec7f509842c48db8b23 -->
<g id="edge5" class="edge"><title>dir_d28a4824dc47e487b107a5db32ef43c4&#45;&gt;dir_d44c64559bbebec7f509842c48db8b23</title>
<path fill="none" stroke="black" d="M80.9144,-215.871C79.3805,-191.67 76.5627,-147.211 74.7362,-118.393"/>
<polygon fill="black" stroke="black" points="78.2151,-117.948 74.0895,-108.189 71.2291,-118.391 78.2151,-117.948"/>
<g id="a_edge5&#45;headlabel"><a xlink:href="dir_000000_000001.html" target="_top" xlink:title="36">
<text text-anchor="middle" x="81.2759" y="-118.356" font-family="Helvetica,sans-Serif" font-size="10.00">36</text>
</a>
</g>
</g>
<!-- dir_23ec12649285f9fabf3a6b7380226c28&#45;&gt;dir_101e12ba6595929da6a45aaeceecbab6 -->
<g id="edge1" class="edge"><title>dir_23ec12649285f9fabf3a6b7380226c28&#45;&gt;dir_101e12ba6595929da6a45aaeceecbab6</title>
<path fill="none" stroke="black" d="M26.5193,-143.708C26.5578,-125.352 28.2078,-95.7703 37,-72 40.5513,-62.3988 46.2018,-52.8512 51.9832,-44.5595"/>
<polygon fill="black" stroke="black" points="54.8628,-46.5517 57.973,-36.4237 49.2257,-42.4016 54.8628,-46.5517"/>
<g id="a_edge1&#45;headlabel"><a xlink:href="dir_000005_000002.html" target="_top" xlink:title="2">
<text text-anchor="middle" x="55.0181" y="-48.1297" font-family="Helvetica,sans-Serif" font-size="10.00">2</text>
</a>
</g>
</g>
<!-- dir_23ec12649285f9fabf3a6b7380226c28&#45;&gt;dir_d44c64559bbebec7f509842c48db8b23 -->
<g id="edge2" class="edge"><title>dir_23ec12649285f9fabf3a6b7380226c28&#45;&gt;dir_d44c64559bbebec7f509842c48db8b23</title>
<path fill="none" stroke="black" d="M38.3708,-143.697C43.7185,-135.559 50.2043,-125.689 56.1106,-116.701"/>
<polygon fill="black" stroke="black" points="59.1932,-118.384 61.76,-108.104 53.3432,-114.539 59.1932,-118.384"/>
<g id="a_edge2&#45;headlabel"><a xlink:href="dir_000005_000001.html" target="_top" xlink:title="1">
<text text-anchor="middle" x="59.5919" y="-119.947" font-family="Helvetica,sans-Serif" font-size="10.00">1</text>
</a>
</g>
</g>
<!-- dir_d44c64559bbebec7f509842c48db8b23&#45;&gt;dir_101e12ba6595929da6a45aaeceecbab6 -->
<g id="edge6" class="edge"><title>dir_d44c64559bbebec7f509842c48db8b23&#45;&gt;dir_101e12ba6595929da6a45aaeceecbab6</title>
<path fill="none" stroke="black" d="M73,-71.6966C73,-63.9827 73,-54.7125 73,-46.1124"/>
<polygon fill="black" stroke="black" points="76.5001,-46.1043 73,-36.1043 69.5001,-46.1044 76.5001,-46.1043"/>
<g id="a_edge6&#45;headlabel"><a xlink:href="dir_000001_000002.html" target="_top" xlink:title="17">
<text text-anchor="middle" x="79.3393" y="-46.699" font-family="Helvetica,sans-Serif" font-size="10.00">17</text>
</a>
</g>
</g>
</g>
</svg>
