<?xml version="1.0" encoding="UTF-8" standalone="no"?>
<!DOCTYPE svg PUBLIC "-//W3C//DTD SVG 1.1//EN"
 "http://www.w3.org/Graphics/SVG/1.1/DTD/svg11.dtd">
<!-- Generated by graphviz version 2.38.0 (20140413.2041)
 -->
<!-- Title: GraphAnalyzer Pages: 1 -->
<svg width="452pt" height="44pt"
 viewBox="0.00 0.00 452.04 44.00" xmlns="http://www.w3.org/2000/svg" xmlns:xlink="http://www.w3.org/1999/xlink">
<g id="graph0" class="graph" transform="scale(1 1) rotate(0) translate(4 40)">
<title>GraphAnalyzer</title>
<polygon fill="white" stroke="none" points="-4,4 -4,-40 448.038,-40 448.038,4 -4,4"/>
<!-- EventHappened -->
<g id="node1" class="node"><title>EventHappened</title>
<polygon fill="lightblue" stroke="lightblue" points="128.133,-36 -0.0444644,-36 -0.0444644,-0 128.133,-0 128.133,-36"/>
<text text-anchor="middle" x="64.0444" y="-13.8" font-family="Helvetica,sans-Serif" font-size="14.00">0:EventHappened</text>
</g>
<!-- EventCounter -->
<g id="node2" class="node"><title>EventCounter</title>
<ellipse fill="none" stroke="blue" cx="235.647" cy="-18" rx="71.6154" ry="18"/>
<text text-anchor="middle" x="235.647" y="-13.8" font-family="Helvetica,sans-Serif" font-size="14.00">1:EventCounter</text>
</g>
<!-- EventHappened&#45;&gt;EventCounter -->
<g id="edge1" class="edge"><title>EventHappened&#45;&gt;EventCounter</title>
<path fill="none" stroke="black" d="M128.198,-18C136.592,-18 145.289,-18 153.929,-18"/>
<polygon fill="black" stroke="black" points="154.025,-21.5001 164.025,-18 154.025,-14.5001 154.025,-21.5001"/>
</g>
<!-- EventCount -->
<g id="node3" class="node"><title>EventCount</title>
<polygon fill="red" stroke="red" points="443.955,-36 343.287,-36 343.287,-0 443.955,-0 443.955,-36"/>
<text text-anchor="middle" x="393.621" y="-13.8" font-family="Helvetica,sans-Serif" font-size="14.00">2:EventCount</text>
</g>
<!-- EventCounter&#45;&gt;EventCount -->
<g id="edge2" class="edge"><title>EventCounter&#45;&gt;EventCount</title>
<path fill="none" stroke="black" d="M307.332,-18C315.928,-18 324.643,-18 333.054,-18"/>
<polygon fill="black" stroke="black" points="333.136,-21.5001 343.136,-18 333.136,-14.5001 333.136,-21.5001"/>
</g>
</g>
</svg>
