<?xml version="1.0" encoding="UTF-8" standalone="no"?>
<!DOCTYPE svg PUBLIC "-//W3C//DTD SVG 1.1//EN"
 "http://www.w3.org/Graphics/SVG/1.1/DTD/svg11.dtd">
<!-- Generated by graphviz version 2.38.0 (20140413.2041)
 -->
<!-- Title: StateLifetime Pages: 1 -->
<svg width="336pt" height="344pt"
 viewBox="0.00 0.00 336.00 344.00" xmlns="http://www.w3.org/2000/svg" xmlns:xlink="http://www.w3.org/1999/xlink">
<g id="graph0" class="graph" transform="scale(1 1) rotate(0) translate(4 340)">
<title>StateLifetime</title>
<polygon fill="white" stroke="none" points="-4,4 -4,-340 332,-340 332,4 -4,4"/>
<g id="clust1" class="cluster"><title>clusterrunning</title>
<polygon fill="lightskyblue" stroke="lightskyblue" points="8,-8 8,-88 320,-88 320,-8 8,-8"/>
<text text-anchor="middle" x="204.874" y="-72.8" font-family="Times,serif" font-size="14.00">Running &amp; Updating GraphStateStore</text>
</g>
<!-- first_ever -->
<g id="node1" class="node"><title>first_ever</title>
</g>
<!-- PrimeSnapshot -->
<g id="node2" class="node"><title>PrimeSnapshot</title>
<ellipse fill="none" stroke="black" cx="88" cy="-232" rx="70.6377" ry="18"/>
<text text-anchor="middle" x="88" y="-227.8" font-family="Monospace" font-size="14.00">PrimeSnapshot</text>
</g>
<!-- first_ever&#45;&gt;PrimeSnapshot -->
<g id="edge1" class="edge"><title>first_ever&#45;&gt;PrimeSnapshot</title>
<path fill="none" stroke="black" d="M88,-299.595C88,-288.257 88,-273.227 88,-260.315"/>
<polygon fill="black" stroke="black" points="91.5001,-260.095 88,-250.095 84.5001,-260.095 91.5001,-260.095"/>
<text text-anchor="middle" x="101.614" y="-270.8" font-family="Times,serif" font-style="italic" font-size="14.00" fill="blue">Start</text>
</g>
<!-- ResumeSnapshot -->
<g id="node3" class="node"><title>ResumeSnapshot</title>
<ellipse fill="none" stroke="black" cx="88" cy="-146" rx="80.311" ry="18"/>
<text text-anchor="middle" x="88" y="-141.8" font-family="Monospace" font-size="14.00">ResumeSnapshot</text>
</g>
<!-- PrimeSnapshot&#45;&gt;ResumeSnapshot -->
<g id="edge2" class="edge"><title>PrimeSnapshot&#45;&gt;ResumeSnapshot</title>
<path fill="none" stroke="black" d="M88,-213.595C88,-202.257 88,-187.227 88,-174.315"/>
<polygon fill="black" stroke="black" points="91.5001,-174.095 88,-164.095 84.5001,-174.095 91.5001,-174.095"/>
<text text-anchor="middle" x="143.351" y="-184.8" font-family="Times,serif" font-style="italic" font-size="14.00" fill="blue">Reads from Storage</text>
</g>
<!-- LatestSnapshot -->
<g id="node4" class="node"><title>LatestSnapshot</title>
<ellipse fill="none" stroke="black" cx="88" cy="-37" rx="71.6327" ry="18"/>
<text text-anchor="middle" x="88" y="-32.8" font-family="Monospace" font-size="14.00">LatestSnapshot</text>
</g>
<!-- ResumeSnapshot&#45;&gt;LatestSnapshot -->
<g id="edge3" class="edge"><title>ResumeSnapshot&#45;&gt;LatestSnapshot</title>
<path fill="none" stroke="black" d="M88,-127.809C88,-110.961 88,-85.0183 88,-65.3394"/>
<polygon fill="black" stroke="black" points="91.5001,-65.1487 88,-55.1487 84.5001,-65.1488 91.5001,-65.1487"/>
<text text-anchor="middle" x="154.11" y="-98.8" font-family="Times,serif" font-style="italic" font-size="14.00" fill="blue">First Graph Evaluation</text>
</g>
<!-- LatestSnapshot&#45;&gt;LatestSnapshot -->
<g id="edge4" class="edge"><title>LatestSnapshot&#45;&gt;LatestSnapshot</title>
<path fill="none" stroke="black" d="M140.439,-49.3267C160.714,-49.8745 177.566,-45.7656 177.566,-37 177.566,-29.741 166.009,-25.6755 150.522,-24.8035"/>
<polygon fill="black" stroke="black" points="150.484,-21.3029 140.439,-24.6733 150.393,-28.3023 150.484,-21.3029"/>
<text text-anchor="middle" x="244.641" y="-46.8" font-family="Times,serif" font-style="italic" font-size="14.00" fill="blue">Subsequent Evaluations</text>
<text text-anchor="middle" x="244.641" y="-32.8" font-family="Times,serif" font-style="italic" font-size="14.00" fill="blue">+</text>
<text text-anchor="middle" x="244.641" y="-18.8" font-family="Times,serif" font-style="italic" font-size="14.00" fill="blue"> Write to Storage</text>
</g>
</g>
</svg>
