<?xml version="1.0" encoding="UTF-8" standalone="no"?>
<!DOCTYPE svg PUBLIC "-//W3C//DTD SVG 1.1//EN"
 "http://www.w3.org/Graphics/SVG/1.1/DTD/svg11.dtd">
<!-- Generated by graphviz version 2.38.0 (20140413.2041)
 -->
<!-- Title: GraphAnalyzer Pages: 1 -->
<svg width="645pt" height="98pt"
 viewBox="0.00 0.00 644.70 98.00" xmlns="http://www.w3.org/2000/svg" xmlns:xlink="http://www.w3.org/1999/xlink">
<g id="graph0" class="graph" transform="scale(1 1) rotate(0) translate(4 94)">
<title>GraphAnalyzer</title>
<polygon fill="white" stroke="none" points="-4,4 -4,-94 640.704,-94 640.704,4 -4,4"/>
<!-- TranslationDictionary -->
<g id="node1" class="node"><title>TranslationDictionary</title>
<polygon fill="lightblue" stroke="lightblue" points="158.489,-90 0.170045,-90 0.170045,-54 158.489,-54 158.489,-90"/>
<text text-anchor="middle" x="79.3296" y="-67.8" font-family="Helvetica,sans-Serif" font-size="14.00">0:TranslationDictionary</text>
</g>
<!-- EnglishToPortugueseTranslator -->
<g id="node3" class="node"><title>EnglishToPortugueseTranslator</title>
<ellipse fill="none" stroke="blue" cx="335.203" cy="-45" rx="140.587" ry="18"/>
<text text-anchor="middle" x="335.203" y="-40.8" font-family="Helvetica,sans-Serif" font-size="14.00">2:EnglishToPortugueseTranslator</text>
</g>
<!-- TranslationDictionary&#45;&gt;EnglishToPortugueseTranslator -->
<g id="edge1" class="edge"><title>TranslationDictionary&#45;&gt;EnglishToPortugueseTranslator</title>
<path fill="none" stroke="black" d="M158.571,-63.6788C176.809,-61.7392 196.627,-59.6315 216.163,-57.5538"/>
<polygon fill="black" stroke="black" points="216.77,-61.0091 226.344,-56.4711 216.03,-54.0483 216.77,-61.0091"/>
</g>
<!-- EnglishText -->
<g id="node2" class="node"><title>EnglishText</title>
<polygon fill="lightblue" stroke="lightblue" points="129.099,-36 29.5607,-36 29.5607,-0 129.099,-0 129.099,-36"/>
<text text-anchor="middle" x="79.3296" y="-13.8" font-family="Helvetica,sans-Serif" font-size="14.00">1:EnglishText</text>
</g>
<!-- EnglishText&#45;&gt;EnglishToPortugueseTranslator -->
<g id="edge2" class="edge"><title>EnglishText&#45;&gt;EnglishToPortugueseTranslator</title>
<path fill="none" stroke="black" d="M128.979,-23.1739C153.988,-25.8337 185.648,-29.2009 216.569,-32.4894"/>
<polygon fill="black" stroke="black" points="216.258,-35.976 226.573,-33.5533 216.999,-29.0153 216.258,-35.976"/>
</g>
<!-- PortugueseText -->
<g id="node4" class="node"><title>PortugueseText</title>
<polygon fill="limegreen" stroke="limegreen" points="636.683,-63 511.767,-63 511.767,-27 636.683,-27 636.683,-63"/>
<text text-anchor="middle" x="574.225" y="-40.8" font-family="Helvetica,sans-Serif" font-size="14.00">3:PortugueseText</text>
</g>
<!-- EnglishToPortugueseTranslator&#45;&gt;PortugueseText -->
<g id="edge3" class="edge"><title>EnglishToPortugueseTranslator&#45;&gt;PortugueseText</title>
<path fill="none" stroke="black" d="M475.793,-45C484.555,-45 493.159,-45 501.403,-45"/>
<polygon fill="black" stroke="black" points="501.639,-48.5001 511.639,-45 501.639,-41.5001 501.639,-48.5001"/>
</g>
</g>
</svg>
