<?xml version="1.0" encoding="UTF-8" standalone="no"?>
<!DOCTYPE svg PUBLIC "-//W3C//DTD SVG 1.1//EN"
 "http://www.w3.org/Graphics/SVG/1.1/DTD/svg11.dtd">
<!-- Generated by graphviz version 2.38.0 (20140413.2041)
 -->
<!-- Title: GraphAnalyzer Pages: 1 -->
<svg width="864pt" height="181pt"
 viewBox="0.00 0.00 864.00 181.42" xmlns="http://www.w3.org/2000/svg" xmlns:xlink="http://www.w3.org/1999/xlink">
<g id="graph0" class="graph" transform="scale(0.511033 0.511033) rotate(0) translate(4 351)">
<title>GraphAnalyzer</title>
<polygon fill="white" stroke="none" points="-4,4 -4,-351 1686.69,-351 1686.69,4 -4,4"/>
<!-- SelectedProduct -->
<g id="node1" class="node"><title>SelectedProduct</title>
<polygon fill="lightblue" stroke="lightblue" points="984.845,-335 854.031,-335 854.031,-299 984.845,-299 984.845,-335"/>
<text text-anchor="middle" x="919.438" y="-312.8" font-family="Helvetica,sans-Serif" font-size="14.00">0:SelectedProduct</text>
</g>
<!-- SaleProcessor -->
<g id="node2" class="node"><title>SaleProcessor</title>
<ellipse fill="none" stroke="blue" cx="1144.22" cy="-271" rx="79.8179" ry="18"/>
<text text-anchor="middle" x="1144.22" y="-266.8" font-family="Helvetica,sans-Serif" font-size="14.00">17:SaleProcessor</text>
</g>
<!-- SelectedProduct&#45;&gt;SaleProcessor -->
<g id="edge1" class="edge"><title>SelectedProduct&#45;&gt;SaleProcessor</title>
<path fill="none" stroke="black" d="M984.876,-303.695C1013.04,-297.88 1046.11,-291.052 1074.72,-285.145"/>
<polygon fill="black" stroke="black" points="1075.55,-288.547 1084.64,-283.097 1074.13,-281.691 1075.55,-288.547"/>
</g>
<!-- SaleProcessed -->
<g id="node19" class="node"><title>SaleProcessed</title>
<polygon fill="red" stroke="red" points="1430.24,-289 1300.99,-289 1300.99,-253 1430.24,-253 1430.24,-289"/>
<text text-anchor="middle" x="1365.62" y="-266.8" font-family="Helvetica,sans-Serif" font-size="14.00">18:SaleProcessed</text>
</g>
<!-- SaleProcessor&#45;&gt;SaleProcessed -->
<g id="edge23" class="edge"><title>SaleProcessor&#45;&gt;SaleProcessed</title>
<path fill="none" stroke="black" d="M1224.43,-271C1245.95,-271 1269.16,-271 1290.4,-271"/>
<polygon fill="black" stroke="black" points="1290.64,-274.5 1300.64,-271 1290.64,-267.5 1290.64,-274.5"/>
</g>
<!-- MoneyBackButton -->
<g id="node3" class="node"><title>MoneyBackButton</title>
<polygon fill="lightblue" stroke="lightblue" points="163.251,-147 21.6584,-147 21.6584,-111 163.251,-111 163.251,-147"/>
<text text-anchor="middle" x="92.4546" y="-124.8" font-family="Helvetica,sans-Serif" font-size="14.00">1:MoneyBackButton</text>
</g>
<!-- UserBalanceDetector -->
<g id="node4" class="node"><title>UserBalanceDetector</title>
<ellipse fill="none" stroke="blue" cx="330.807" cy="-129" rx="101.568" ry="18"/>
<text text-anchor="middle" x="330.807" y="-124.8" font-family="Helvetica,sans-Serif" font-size="14.00">7:UserBalanceDetector</text>
</g>
<!-- MoneyBackButton&#45;&gt;UserBalanceDetector -->
<g id="edge2" class="edge"><title>MoneyBackButton&#45;&gt;UserBalanceDetector</title>
<path fill="none" stroke="black" d="M163.409,-129C180.832,-129 199.943,-129 218.809,-129"/>
<polygon fill="black" stroke="black" points="218.947,-132.5 228.946,-129 218.946,-125.5 218.947,-132.5"/>
</g>
<!-- UserBalance -->
<g id="node13" class="node"><title>UserBalance</title>
<polygon fill="red" stroke="red" points="977.052,-201 861.824,-201 861.824,-165 977.052,-165 977.052,-201"/>
<text text-anchor="middle" x="919.438" y="-178.8" font-family="Helvetica,sans-Serif" font-size="14.00">12:UserBalance</text>
</g>
<!-- UserBalanceDetector&#45;&gt;UserBalance -->
<g id="edge11" class="edge"><title>UserBalanceDetector&#45;&gt;UserBalance</title>
<path fill="none" stroke="black" d="M379.522,-144.801C407.502,-153.319 443.726,-163.069 476.705,-168 608.336,-187.683 764.377,-187.58 851.325,-185.467"/>
<polygon fill="black" stroke="black" points="851.674,-188.959 861.58,-185.2 851.492,-181.961 851.674,-188.959"/>
</g>
<!-- ReturnChange -->
<g id="node14" class="node"><title>ReturnChange</title>
<polygon fill="red" stroke="red" points="595.312,-105 476.836,-105 476.836,-69 595.312,-69 595.312,-105"/>
<text text-anchor="middle" x="536.074" y="-82.8" font-family="Helvetica,sans-Serif" font-size="14.00">8:ReturnChange</text>
</g>
<!-- UserBalanceDetector&#45;&gt;ReturnChange -->
<g id="edge12" class="edge"><title>UserBalanceDetector&#45;&gt;ReturnChange</title>
<path fill="none" stroke="black" d="M397.521,-115.422C419.65,-110.849 444.386,-105.738 466.714,-101.125"/>
<polygon fill="black" stroke="black" points="467.701,-104.495 476.785,-99.0439 466.284,-97.6399 467.701,-104.495"/>
</g>
<!-- CoinInserted -->
<g id="node5" class="node"><title>CoinInserted</title>
<polygon fill="lightblue" stroke="lightblue" points="146.009,-36 38.8999,-36 38.8999,-0 146.009,-0 146.009,-36"/>
<text text-anchor="middle" x="92.4546" y="-13.8" font-family="Helvetica,sans-Serif" font-size="14.00">2:CoinInserted</text>
</g>
<!-- CoinInserted&#45;&gt;UserBalanceDetector -->
<g id="edge4" class="edge"><title>CoinInserted&#45;&gt;UserBalanceDetector</title>
<path fill="none" stroke="black" d="M131.955,-36.0811C173.842,-55.753 240.728,-87.1649 284.957,-107.937"/>
<polygon fill="black" stroke="black" points="283.494,-111.116 294.034,-112.199 286.47,-104.78 283.494,-111.116"/>
</g>
<!-- CoinBankManager -->
<g id="node6" class="node"><title>CoinBankManager</title>
<ellipse fill="none" stroke="blue" cx="722.173" cy="-87" rx="90.9607" ry="18"/>
<text text-anchor="middle" x="722.173" y="-82.8" font-family="Helvetica,sans-Serif" font-size="14.00">9:CoinBankManager</text>
</g>
<!-- CoinInserted&#45;&gt;CoinBankManager -->
<g id="edge3" class="edge"><title>CoinInserted&#45;&gt;CoinBankManager</title>
<path fill="none" stroke="black" d="M146.028,-11.7191C238.421,-2.26752 435.312,10.7622 595.443,-27 627.38,-34.5314 660.778,-50.9312 685.119,-64.6846"/>
<polygon fill="black" stroke="black" points="683.572,-67.833 693.982,-69.8021 687.072,-61.7709 683.572,-67.833"/>
</g>
<!-- ReleaseCoins -->
<g id="node15" class="node"><title>ReleaseCoins</title>
<polygon fill="limegreen" stroke="limegreen" points="980.026,-55 858.849,-55 858.849,-19 980.026,-19 980.026,-55"/>
<text text-anchor="middle" x="919.438" y="-32.8" font-family="Helvetica,sans-Serif" font-size="14.00">11:ReleaseCoins</text>
</g>
<!-- CoinBankManager&#45;&gt;ReleaseCoins -->
<g id="edge14" class="edge"><title>CoinBankManager&#45;&gt;ReleaseCoins</title>
<path fill="none" stroke="black" d="M778.606,-72.8057C800.508,-67.1975 825.918,-60.6908 849.022,-54.7747"/>
<polygon fill="black" stroke="black" points="849.947,-58.151 858.766,-52.2797 848.21,-51.3698 849.947,-58.151"/>
</g>
<!-- ChangeAvailable -->
<g id="node16" class="node"><title>ChangeAvailable</title>
<polygon fill="red" stroke="red" points="990.008,-109 848.868,-109 848.868,-73 990.008,-73 990.008,-109"/>
<text text-anchor="middle" x="919.438" y="-86.8" font-family="Helvetica,sans-Serif" font-size="14.00">10:ChangeAvailable</text>
</g>
<!-- CoinBankManager&#45;&gt;ChangeAvailable -->
<g id="edge15" class="edge"><title>CoinBankManager&#45;&gt;ChangeAvailable</title>
<path fill="none" stroke="black" d="M812.519,-88.8303C821.253,-89.0092 830.075,-89.1899 838.705,-89.3667"/>
<polygon fill="black" stroke="black" points="838.66,-92.8664 848.729,-89.572 838.803,-85.8679 838.66,-92.8664"/>
</g>
<!-- RefillChange -->
<g id="node7" class="node"><title>RefillChange</title>
<polygon fill="lightblue" stroke="lightblue" points="589.908,-159 482.24,-159 482.24,-123 589.908,-123 589.908,-159"/>
<text text-anchor="middle" x="536.074" y="-136.8" font-family="Helvetica,sans-Serif" font-size="14.00">3:RefillChange</text>
</g>
<!-- RefillChange&#45;&gt;CoinBankManager -->
<g id="edge5" class="edge"><title>RefillChange&#45;&gt;CoinBankManager</title>
<path fill="none" stroke="black" d="M590.323,-125.381C612.339,-118.923 637.98,-111.402 660.7,-104.738"/>
<polygon fill="black" stroke="black" points="661.963,-108.015 670.574,-101.842 659.993,-101.298 661.963,-108.015"/>
</g>
<!-- PriceUpdate -->
<g id="node8" class="node"><title>PriceUpdate</title>
<polygon fill="lightblue" stroke="lightblue" points="144.672,-347 40.2374,-347 40.2374,-311 144.672,-311 144.672,-347"/>
<text text-anchor="middle" x="92.4546" y="-324.8" font-family="Helvetica,sans-Serif" font-size="14.00">4:PriceUpdate</text>
</g>
<!-- ProductStockManager -->
<g id="node9" class="node"><title>ProductStockManager</title>
<ellipse fill="none" stroke="blue" cx="330.807" cy="-275" rx="109.796" ry="18"/>
<text text-anchor="middle" x="330.807" y="-270.8" font-family="Helvetica,sans-Serif" font-size="14.00">15:ProductStockManager</text>
</g>
<!-- PriceUpdate&#45;&gt;ProductStockManager -->
<g id="edge6" class="edge"><title>PriceUpdate&#45;&gt;ProductStockManager</title>
<path fill="none" stroke="black" d="M144.74,-317.283C177.254,-309.854 219.841,-300.124 255.965,-291.871"/>
<polygon fill="black" stroke="black" points="256.999,-295.225 265.968,-289.585 255.44,-288.401 256.999,-295.225"/>
</g>
<!-- StockState -->
<g id="node18" class="node"><title>StockState</title>
<polygon fill="red" stroke="red" points="773.838,-293 670.508,-293 670.508,-257 773.838,-257 773.838,-293"/>
<text text-anchor="middle" x="722.173" y="-270.8" font-family="Helvetica,sans-Serif" font-size="14.00">16:StockState</text>
</g>
<!-- ProductStockManager&#45;&gt;StockState -->
<g id="edge21" class="edge"><title>ProductStockManager&#45;&gt;StockState</title>
<path fill="none" stroke="black" d="M440.785,-275C511.777,-275 601.766,-275 660.37,-275"/>
<polygon fill="black" stroke="black" points="660.575,-278.5 670.575,-275 660.575,-271.5 660.575,-278.5"/>
</g>
<!-- RefillProduct -->
<g id="node10" class="node"><title>RefillProduct</title>
<polygon fill="lightblue" stroke="lightblue" points="145.996,-293 38.9136,-293 38.9136,-257 145.996,-257 145.996,-293"/>
<text text-anchor="middle" x="92.4546" y="-270.8" font-family="Helvetica,sans-Serif" font-size="14.00">5:RefillProduct</text>
</g>
<!-- RefillProduct&#45;&gt;ProductStockManager -->
<g id="edge7" class="edge"><title>RefillProduct&#45;&gt;ProductStockManager</title>
<path fill="none" stroke="black" d="M146.203,-275C165.402,-275 187.965,-275 210.58,-275"/>
<polygon fill="black" stroke="black" points="210.613,-278.5 220.613,-275 210.613,-271.5 210.613,-278.5"/>
</g>
<!-- LaggedSaleProcessed -->
<g id="node11" class="node"><title>LaggedSaleProcessed</title>
<polygon fill="lightblue" stroke="lightblue" points="184.864,-239 0.0453879,-239 0.0453879,-203 184.864,-203 184.864,-239"/>
<text text-anchor="middle" x="92.4546" y="-216.8" font-family="Helvetica,sans-Serif" font-size="14.00">6:Lagged&lt;SaleProcessed&gt;</text>
</g>
<!-- LaggedSaleProcessed&#45;&gt;UserBalanceDetector -->
<g id="edge9" class="edge"><title>LaggedSaleProcessed&#45;&gt;UserBalanceDetector</title>
<path fill="none" stroke="black" d="M139.868,-202.934C179.78,-187.398 237.266,-165.022 278.528,-148.961"/>
<polygon fill="black" stroke="black" points="279.809,-152.218 287.858,-145.329 277.27,-145.694 279.809,-152.218"/>
</g>
<!-- LaggedSaleProcessed&#45;&gt;ProductStockManager -->
<g id="edge8" class="edge"><title>LaggedSaleProcessed&#45;&gt;ProductStockManager</title>
<path fill="none" stroke="black" d="M172.485,-239.056C199.378,-245.201 229.32,-252.042 255.805,-258.093"/>
<polygon fill="black" stroke="black" points="255.244,-261.555 265.773,-260.37 256.803,-254.73 255.244,-261.555"/>
</g>
<!-- FinancesReportDetector -->
<g id="node12" class="node"><title>FinancesReportDetector</title>
<ellipse fill="none" stroke="blue" cx="1144.22" cy="-179" rx="118.499" ry="18"/>
<text text-anchor="middle" x="1144.22" y="-174.8" font-family="Helvetica,sans-Serif" font-size="14.00">13:FinancesReportDetector</text>
</g>
<!-- LaggedSaleProcessed&#45;&gt;FinancesReportDetector -->
<g id="edge10" class="edge"><title>LaggedSaleProcessed&#45;&gt;FinancesReportDetector</title>
<path fill="none" stroke="black" d="M185.216,-223.631C274.533,-225.962 414.107,-229 535.074,-229 535.074,-229 535.074,-229 723.173,-229 842.051,-229 872.182,-226.04 989.973,-210 1015.62,-206.507 1043.43,-201.315 1068.22,-196.174"/>
<polygon fill="black" stroke="black" points="1069.22,-199.541 1078.29,-194.057 1067.78,-192.691 1069.22,-199.541"/>
</g>
<!-- FinancesReport -->
<g id="node17" class="node"><title>FinancesReport</title>
<polygon fill="limegreen" stroke="limegreen" points="1432.91,-197 1298.33,-197 1298.33,-161 1432.91,-161 1432.91,-197"/>
<text text-anchor="middle" x="1365.62" y="-174.8" font-family="Helvetica,sans-Serif" font-size="14.00">14:FinancesReport</text>
</g>
<!-- FinancesReportDetector&#45;&gt;FinancesReport -->
<g id="edge20" class="edge"><title>FinancesReportDetector&#45;&gt;FinancesReport</title>
<path fill="none" stroke="black" d="M1262.63,-179C1271.32,-179 1279.95,-179 1288.29,-179"/>
<polygon fill="black" stroke="black" points="1288.31,-182.5 1298.31,-179 1288.31,-175.5 1288.31,-182.5"/>
</g>
<!-- UserBalance&#45;&gt;SaleProcessor -->
<g id="edge18" class="edge"><title>UserBalance&#45;&gt;SaleProcessor</title>
<path fill="none" stroke="black" d="M950.072,-201.007C970.773,-213.01 999.361,-228.459 1025.97,-239 1042.21,-245.431 1060.2,-251.048 1077.12,-255.705"/>
<polygon fill="black" stroke="black" points="1076.36,-259.127 1086.93,-258.336 1078.18,-252.366 1076.36,-259.127"/>
</g>
<!-- UserBalance&#45;&gt;FinancesReportDetector -->
<g id="edge19" class="edge"><title>UserBalance&#45;&gt;FinancesReportDetector</title>
<path fill="none" stroke="black" d="M977.232,-181.98C989.473,-181.76 1002.88,-181.52 1016.61,-181.273"/>
<polygon fill="black" stroke="black" points="1016.71,-184.772 1026.64,-181.093 1016.58,-177.773 1016.71,-184.772"/>
</g>
<!-- ReturnChange&#45;&gt;CoinBankManager -->
<g id="edge13" class="edge"><title>ReturnChange&#45;&gt;CoinBankManager</title>
<path fill="none" stroke="black" d="M595.324,-87C603.667,-87 612.439,-87 621.31,-87"/>
<polygon fill="black" stroke="black" points="621.348,-90.5001 631.348,-87 621.348,-83.5001 621.348,-90.5001"/>
</g>
<!-- ChangeAvailable&#45;&gt;SaleProcessor -->
<g id="edge16" class="edge"><title>ChangeAvailable&#45;&gt;SaleProcessor</title>
<path fill="none" stroke="black" d="M941.85,-109.06C956.156,-121.582 975.018,-139.003 989.973,-156 1008.06,-176.558 1005.5,-187.811 1025.97,-206 1046.62,-224.344 1073.31,-239.646 1096.01,-250.787"/>
<polygon fill="black" stroke="black" points="1094.61,-253.996 1105.14,-255.151 1097.63,-247.681 1094.61,-253.996"/>
</g>
<!-- ChangeAvailable&#45;&gt;FinancesReportDetector -->
<g id="edge17" class="edge"><title>ChangeAvailable&#45;&gt;FinancesReportDetector</title>
<path fill="none" stroke="black" d="M966.059,-109.02C1002.44,-123.391 1053.4,-143.521 1091.33,-158.504"/>
<polygon fill="black" stroke="black" points="1090.09,-161.778 1100.68,-162.196 1092.67,-155.267 1090.09,-161.778"/>
</g>
<!-- StockState&#45;&gt;SaleProcessor -->
<g id="edge22" class="edge"><title>StockState&#45;&gt;SaleProcessor</title>
<path fill="none" stroke="black" d="M773.84,-274.518C843.14,-273.858 968.592,-272.663 1053.87,-271.851"/>
<polygon fill="black" stroke="black" points="1054.1,-275.349 1064.06,-271.754 1054.03,-268.349 1054.1,-275.349"/>
</g>
<!-- LagSaleProcessed -->
<g id="node20" class="node"><title>LagSaleProcessed</title>
<ellipse fill="none" stroke="blue" cx="1575.73" cy="-271" rx="106.932" ry="18"/>
<text text-anchor="middle" x="1575.73" y="-266.8" font-family="Helvetica,sans-Serif" font-size="14.00">19:Lag&lt;SaleProcessed&gt;</text>
</g>
<!-- SaleProcessed&#45;&gt;LagSaleProcessed -->
<g id="edge24" class="edge"><title>SaleProcessed&#45;&gt;LagSaleProcessed</title>
<path fill="none" stroke="black" d="M1430.47,-271C1439.43,-271 1448.85,-271 1458.42,-271"/>
<polygon fill="black" stroke="black" points="1458.43,-274.5 1468.43,-271 1458.43,-267.5 1458.43,-274.5"/>
</g>
<!-- LagSaleProcessed&#45;&gt;LaggedSaleProcessed -->
<g id="edge25" class="edge"><title>LagSaleProcessed&#45;&gt;LaggedSaleProcessed</title>
<path fill="none" stroke="red" stroke-dasharray="1,5" d="M1508.14,-256.986C1484.43,-252.354 1457.48,-247.497 1432.76,-244 1342.87,-231.282 1104.76,-251.109 1025.97,-206 1002.21,-192.395 1013.58,-169.883 989.973,-156 851.685,-74.6597 768.244,-197.818 631.443,-114 606.848,-98.9307 620.874,-73.6105 595.443,-60 548.915,-35.099 529.303,-55.7106 476.705,-60 361.877,-69.3643 317.732,-39.5611 220.909,-102 196.668,-117.633 204.998,-135.301 184.909,-156 169.775,-171.593 150.465,-185.939 133.491,-197.164"/>
<polygon fill="red" stroke="red" points="131.363,-194.373 124.863,-202.74 135.162,-200.252 131.363,-194.373"/>
</g>
</g>
</svg>
