<?xml version="1.0" encoding="UTF-8" standalone="no"?>
<!DOCTYPE svg PUBLIC "-//W3C//DTD SVG 1.1//EN"
 "http://www.w3.org/Graphics/SVG/1.1/DTD/svg11.dtd">
<!-- Generated by graphviz version 2.38.0 (20140413.2041)
 -->
<!-- Title: GraphAnalyzer Pages: 1 -->
<svg width="636pt" height="98pt"
 viewBox="0.00 0.00 636.05 98.00" xmlns="http://www.w3.org/2000/svg" xmlns:xlink="http://www.w3.org/1999/xlink">
<g id="graph0" class="graph" transform="scale(1 1) rotate(0) translate(4 94)">
<title>GraphAnalyzer</title>
<polygon fill="white" stroke="none" points="-4,4 -4,-94 632.05,-94 632.05,4 -4,4"/>
<!-- EventHappened -->
<g id="node1" class="node"><title>EventHappened</title>
<polygon fill="lightblue" stroke="lightblue" points="128.133,-90 -0.0444644,-90 -0.0444644,-54 128.133,-54 128.133,-90"/>
<text text-anchor="middle" x="64.0444" y="-67.8" font-family="Helvetica,sans-Serif" font-size="14.00">0:EventHappened</text>
</g>
<!-- EventCounter -->
<g id="node2" class="node"><title>EventCounter</title>
<ellipse fill="none" stroke="blue" cx="235.647" cy="-56" rx="71.6154" ry="18"/>
<text text-anchor="middle" x="235.647" y="-51.8" font-family="Helvetica,sans-Serif" font-size="14.00">1:EventCounter</text>
</g>
<!-- EventHappened&#45;&gt;EventCounter -->
<g id="edge1" class="edge"><title>EventHappened&#45;&gt;EventCounter</title>
<path fill="none" stroke="black" d="M128.198,-66.0422C138.016,-65.1159 148.249,-64.1506 158.322,-63.2004"/>
<polygon fill="black" stroke="black" points="158.692,-66.6811 168.319,-62.2573 158.034,-59.712 158.692,-66.6811"/>
</g>
<!-- EventCount -->
<g id="node3" class="node"><title>EventCount</title>
<polygon fill="red" stroke="red" points="443.955,-74 343.287,-74 343.287,-38 443.955,-38 443.955,-74"/>
<text text-anchor="middle" x="393.621" y="-51.8" font-family="Helvetica,sans-Serif" font-size="14.00">2:EventCount</text>
</g>
<!-- EventCounter&#45;&gt;EventCount -->
<g id="edge2" class="edge"><title>EventCounter&#45;&gt;EventCount</title>
<path fill="none" stroke="black" d="M307.332,-56C315.928,-56 324.643,-56 333.054,-56"/>
<polygon fill="black" stroke="black" points="333.136,-59.5001 343.136,-56 333.136,-52.5001 333.136,-59.5001"/>
</g>
<!-- ResetDetector -->
<g id="node4" class="node"><title>ResetDetector</title>
<ellipse fill="none" stroke="blue" cx="554.044" cy="-56" rx="74.0121" ry="18"/>
<text text-anchor="middle" x="554.044" y="-51.8" font-family="Helvetica,sans-Serif" font-size="14.00">3:ResetDetector</text>
</g>
<!-- EventCount&#45;&gt;ResetDetector -->
<g id="edge3" class="edge"><title>EventCount&#45;&gt;ResetDetector</title>
<path fill="none" stroke="black" d="M444.313,-56C452.465,-56 461.105,-56 469.809,-56"/>
<polygon fill="black" stroke="black" points="470.032,-59.5001 480.032,-56 470.032,-52.5001 470.032,-59.5001"/>
</g>
<!-- Reset -->
<g id="node5" class="node"><title>Reset</title>
<polygon fill="red" stroke="red" points="96.293,-36 31.7959,-36 31.7959,-0 96.293,-0 96.293,-36"/>
<text text-anchor="middle" x="64.0444" y="-13.8" font-family="Helvetica,sans-Serif" font-size="14.00">4:Reset</text>
</g>
<!-- ResetDetector&#45;&gt;Reset -->
<g id="edge4" class="edge"><title>ResetDetector&#45;&gt;Reset</title>
<path fill="none" stroke="red" stroke-dasharray="1,5" d="M506.522,-42.1512C487.351,-37.0556 464.804,-31.8398 444.038,-29 322.142,-12.3302 176.218,-14.1381 106.327,-16.3284"/>
<polygon fill="red" stroke="red" points="106.057,-12.8353 96.1787,-16.6663 106.29,-19.8315 106.057,-12.8353"/>
</g>
<!-- Reset&#45;&gt;EventCounter -->
<g id="edge5" class="edge"><title>Reset&#45;&gt;EventCounter</title>
<path fill="none" stroke="black" d="M96.5478,-25.0585C117.606,-29.7766 146.038,-36.1468 171.63,-41.8809"/>
<polygon fill="black" stroke="black" points="171.124,-45.3543 181.647,-44.1254 172.655,-38.5236 171.124,-45.3543"/>
</g>
</g>
</svg>
