<?xml version="1.0" encoding="UTF-8" standalone="no"?>
<!DOCTYPE svg PUBLIC "-//W3C//DTD SVG 1.1//EN"
 "http://www.w3.org/Graphics/SVG/1.1/DTD/svg11.dtd">
<!-- Generated by graphviz version 2.38.0 (20140413.2041)
 -->
<!-- Title: GraphAnalyzer Pages: 1 -->
<svg width="801pt" height="314pt"
 viewBox="0.00 0.00 801.03 314.00" xmlns="http://www.w3.org/2000/svg" xmlns:xlink="http://www.w3.org/1999/xlink">
<g id="graph0" class="graph" transform="scale(1 1) rotate(0) translate(4 310)">
<title>GraphAnalyzer</title>
<polygon fill="white" stroke="none" points="-4,4 -4,-310 797.033,-310 797.033,4 -4,4"/>
<!-- ThenYouState -->
<g id="node1" class="node"><title>ThenYouState</title>
<polygon fill="limegreen" stroke="limegreen" points="780.285,-90 664.484,-90 664.484,-54 780.285,-54 780.285,-90"/>
<text text-anchor="middle" x="722.385" y="-67.8" font-family="Helvetica,sans-Serif" font-size="14.00">0:ThenYouState</text>
</g>
<!-- RememberPause -->
<g id="node2" class="node"><title>RememberPause</title>
<polygon fill="orange" stroke="orange" points="790.499,-306 654.271,-306 654.271,-270 790.499,-270 790.499,-306"/>
<text text-anchor="middle" x="722.385" y="-283.8" font-family="Helvetica,sans-Serif" font-size="14.00">1:RememberPause</text>
</g>
<!-- RememberDetector -->
<g id="node3" class="node"><title>RememberDetector</title>
<ellipse fill="none" stroke="blue" cx="490.613" cy="-261" rx="94.7847" ry="18"/>
<text text-anchor="middle" x="490.613" y="-256.8" font-family="Helvetica,sans-Serif" font-size="14.00">9:RememberDetector</text>
</g>
<!-- RememberPause&#45;&gt;RememberDetector -->
<g id="edge1" class="edge"><title>RememberPause&#45;&gt;RememberDetector</title>
<path fill="none" stroke="black" d="M654.081,-286.298C625.818,-283.66 592.889,-279.829 564.094,-275.841"/>
<polygon fill="black" stroke="black" points="564.488,-272.362 554.096,-274.425 563.506,-279.292 564.488,-272.362"/>
</g>
<!-- RememberDetector&#45;&gt;RememberPause -->
<g id="edge13" class="edge"><title>RememberDetector&#45;&gt;RememberPause</title>
<path fill="none" stroke="red" stroke-dasharray="1,5" d="M583.085,-265.125C603.227,-267.272 624.372,-269.824 643.899,-272.473"/>
<polygon fill="red" stroke="red" points="643.563,-275.96 653.949,-273.866 644.524,-269.026 643.563,-275.96"/>
</g>
<!-- RememberState -->
<g id="node12" class="node"><title>RememberState</title>
<polygon fill="limegreen" stroke="limegreen" points="791.278,-252 653.492,-252 653.492,-216 791.278,-216 791.278,-252"/>
<text text-anchor="middle" x="722.385" y="-229.8" font-family="Helvetica,sans-Serif" font-size="14.00">10:RememberState</text>
</g>
<!-- RememberDetector&#45;&gt;RememberState -->
<g id="edge12" class="edge"><title>RememberDetector&#45;&gt;RememberState</title>
<path fill="none" stroke="black" d="M571.653,-251.595C594.894,-248.864 620.237,-245.886 643.353,-243.169"/>
<polygon fill="black" stroke="black" points="643.931,-246.626 653.455,-241.982 643.114,-239.673 643.931,-246.626"/>
</g>
<!-- DontPause -->
<g id="node4" class="node"><title>DontPause</title>
<polygon fill="orange" stroke="orange" points="770.829,-198 673.94,-198 673.94,-162 770.829,-162 770.829,-198"/>
<text text-anchor="middle" x="722.385" y="-175.8" font-family="Helvetica,sans-Serif" font-size="14.00">2:DontPause</text>
</g>
<!-- DontDetector -->
<g id="node5" class="node"><title>DontDetector</title>
<ellipse fill="none" stroke="blue" cx="490.613" cy="-153" rx="73.7015" ry="18"/>
<text text-anchor="middle" x="490.613" y="-148.8" font-family="Helvetica,sans-Serif" font-size="14.00">11:DontDetector</text>
</g>
<!-- DontPause&#45;&gt;DontDetector -->
<g id="edge2" class="edge"><title>DontPause&#45;&gt;DontDetector</title>
<path fill="none" stroke="black" d="M673.701,-179.992C639.548,-177.314 593.176,-172.042 555.777,-166.667"/>
<polygon fill="black" stroke="black" points="555.888,-163.146 545.484,-165.151 554.867,-170.071 555.888,-163.146"/>
</g>
<!-- DontDetector&#45;&gt;DontPause -->
<g id="edge15" class="edge"><title>DontDetector&#45;&gt;DontPause</title>
<path fill="none" stroke="red" stroke-dasharray="1,5" d="M563.999,-155.184C596.145,-158.284 633.459,-162.795 663.684,-167.276"/>
<polygon fill="red" stroke="red" points="663.232,-170.747 673.645,-168.792 664.286,-163.827 663.232,-170.747"/>
</g>
<!-- DontThemeState -->
<g id="node13" class="node"><title>DontThemeState</title>
<polygon fill="limegreen" stroke="limegreen" points="793.181,-144 651.588,-144 651.588,-108 793.181,-108 793.181,-144"/>
<text text-anchor="middle" x="722.385" y="-121.8" font-family="Helvetica,sans-Serif" font-size="14.00">12:DontThemeState</text>
</g>
<!-- DontDetector&#45;&gt;DontThemeState -->
<g id="edge14" class="edge"><title>DontDetector&#45;&gt;DontThemeState</title>
<path fill="none" stroke="black" d="M557.456,-145.263C583.676,-142.182 614.091,-138.608 641.552,-135.381"/>
<polygon fill="black" stroke="black" points="641.999,-138.853 651.522,-134.209 641.182,-131.9 641.999,-138.853"/>
</g>
<!-- RhytmBeats -->
<g id="node6" class="node"><title>RhytmBeats</title>
<polygon fill="orange" stroke="orange" points="313.096,-198 209.249,-198 209.249,-162 313.096,-162 313.096,-198"/>
<text text-anchor="middle" x="261.172" y="-175.8" font-family="Helvetica,sans-Serif" font-size="14.00">3:RhytmBeats</text>
</g>
<!-- ThemeDetector -->
<g id="node7" class="node"><title>ThemeDetector</title>
<ellipse fill="none" stroke="blue" cx="78.4278" cy="-180" rx="78.3556" ry="18"/>
<text text-anchor="middle" x="78.4278" y="-175.8" font-family="Helvetica,sans-Serif" font-size="14.00">4:ThemeDetector</text>
</g>
<!-- RhytmBeats&#45;&gt;ThemeDetector -->
<g id="edge3" class="edge"><title>RhytmBeats&#45;&gt;ThemeDetector</title>
<path fill="none" stroke="black" d="M209.054,-186.149C194.221,-186.633 177.637,-186.825 161.416,-186.724"/>
<polygon fill="black" stroke="black" points="161.417,-183.224 151.382,-186.624 161.347,-190.224 161.417,-183.224"/>
</g>
<!-- ThemeDetector&#45;&gt;RhytmBeats -->
<g id="edge5" class="edge"><title>ThemeDetector&#45;&gt;RhytmBeats</title>
<path fill="none" stroke="red" stroke-dasharray="1,5" d="M151.382,-173.376C167.06,-173.159 183.509,-173.222 198.734,-173.567"/>
<polygon fill="red" stroke="red" points="198.962,-177.075 209.054,-173.851 199.154,-170.078 198.962,-177.075"/>
</g>
<!-- SongThemeState -->
<g id="node8" class="node"><title>SongThemeState</title>
<polygon fill="red" stroke="red" points="329.307,-144 193.038,-144 193.038,-108 329.307,-108 329.307,-144"/>
<text text-anchor="middle" x="261.172" y="-121.8" font-family="Helvetica,sans-Serif" font-size="14.00">5:SongThemeState</text>
</g>
<!-- ThemeDetector&#45;&gt;SongThemeState -->
<g id="edge4" class="edge"><title>ThemeDetector&#45;&gt;SongThemeState</title>
<path fill="none" stroke="black" d="M126.916,-165.812C146.236,-160.04 168.959,-153.251 190.116,-146.93"/>
<polygon fill="black" stroke="black" points="191.129,-150.281 199.708,-144.065 189.125,-143.574 191.129,-150.281"/>
</g>
<!-- SongThemeState&#45;&gt;RememberDetector -->
<g id="edge7" class="edge"><title>SongThemeState&#45;&gt;RememberDetector</title>
<path fill="none" stroke="black" d="M311.772,-144.155C317.854,-146.885 323.892,-149.851 329.489,-153 346.92,-162.807 349.106,-168.529 365.489,-180 394.715,-200.463 428.694,-222.521 453.704,-238.443"/>
<polygon fill="black" stroke="black" points="451.835,-241.403 462.153,-243.807 455.586,-235.493 451.835,-241.403"/>
</g>
<!-- SongThemeState&#45;&gt;DontDetector -->
<g id="edge6" class="edge"><title>SongThemeState&#45;&gt;DontDetector</title>
<path fill="none" stroke="black" d="M329.489,-133.991C355.855,-137.121 386.239,-140.728 413.405,-143.953"/>
<polygon fill="black" stroke="black" points="413.302,-147.465 423.645,-145.169 414.127,-140.514 413.302,-147.465"/>
</g>
<!-- ThenYouDetector -->
<g id="node9" class="node"><title>ThenYouDetector</title>
<ellipse fill="none" stroke="blue" cx="490.613" cy="-99" rx="85.9689" ry="18"/>
<text text-anchor="middle" x="490.613" y="-94.8" font-family="Helvetica,sans-Serif" font-size="14.00">8:ThenYouDetector</text>
</g>
<!-- SongThemeState&#45;&gt;ThenYouDetector -->
<g id="edge8" class="edge"><title>SongThemeState&#45;&gt;ThenYouDetector</title>
<path fill="none" stroke="black" d="M329.489,-118.009C353.205,-115.193 380.172,-111.992 405.124,-109.03"/>
<polygon fill="black" stroke="black" points="405.791,-112.475 415.309,-107.821 404.966,-105.524 405.791,-112.475"/>
</g>
<!-- TooManyNaNaNasDetector -->
<g id="node10" class="node"><title>TooManyNaNaNasDetector</title>
<ellipse fill="none" stroke="blue" cx="490.613" cy="-45" rx="125.248" ry="18"/>
<text text-anchor="middle" x="490.613" y="-40.8" font-family="Helvetica,sans-Serif" font-size="14.00">6:TooManyNaNaNasDetector</text>
</g>
<!-- SongThemeState&#45;&gt;TooManyNaNaNasDetector -->
<g id="edge9" class="edge"><title>SongThemeState&#45;&gt;TooManyNaNaNasDetector</title>
<path fill="none" stroke="black" d="M291.494,-107.971C311.666,-96.2536 339.423,-81.4531 365.489,-72 376.665,-67.9471 388.638,-64.4038 400.577,-61.3353"/>
<polygon fill="black" stroke="black" points="401.708,-64.6613 410.579,-58.8686 400.032,-57.8649 401.708,-64.6613"/>
</g>
<!-- ThenYouDetector&#45;&gt;ThenYouState -->
<g id="edge11" class="edge"><title>ThenYouDetector&#45;&gt;ThenYouState</title>
<path fill="none" stroke="red" stroke-dasharray="1,5" d="M565.896,-90.2712C594.389,-86.923 626.706,-83.1255 654.468,-79.8633"/>
<polygon fill="red" stroke="red" points="654.951,-83.3307 664.474,-78.6874 654.134,-76.3785 654.951,-83.3307"/>
</g>
<!-- PlaybackState -->
<g id="node11" class="node"><title>PlaybackState</title>
<polygon fill="limegreen" stroke="limegreen" points="781.057,-36 663.713,-36 663.713,-0 781.057,-0 781.057,-36"/>
<text text-anchor="middle" x="722.385" y="-13.8" font-family="Helvetica,sans-Serif" font-size="14.00">7:PlaybackState</text>
</g>
<!-- TooManyNaNaNasDetector&#45;&gt;PlaybackState -->
<g id="edge10" class="edge"><title>TooManyNaNaNasDetector&#45;&gt;PlaybackState</title>
<path fill="none" stroke="black" d="M588.058,-33.6669C610.016,-31.0867 632.897,-28.398 653.378,-25.9913"/>
<polygon fill="black" stroke="black" points="654.014,-29.4407 663.537,-24.7975 653.197,-22.4886 654.014,-29.4407"/>
</g>
</g>
</svg>
