<?xml version="1.0" encoding="UTF-8" standalone="no"?>
<!DOCTYPE svg PUBLIC "-//W3C//DTD SVG 1.1//EN"
 "http://www.w3.org/Graphics/SVG/1.1/DTD/svg11.dtd">
<!-- Generated by graphviz version 2.38.0 (20140413.2041)
 -->
<!-- Title: GraphAnalyzer Pages: 1 -->
<svg width="487pt" height="114pt"
 viewBox="0.00 0.00 486.79 114.00" xmlns="http://www.w3.org/2000/svg" xmlns:xlink="http://www.w3.org/1999/xlink">
<g id="graph0" class="graph" transform="scale(1 1) rotate(0) translate(4 110)">
<title>GraphAnalyzer</title>
<polygon fill="white" stroke="none" points="-4,4 -4,-110 482.786,-110 482.786,4 -4,4"/>
<!-- BuyButtonClicked -->
<g id="node1" class="node"><title>BuyButtonClicked</title>
<polygon fill="lightblue" stroke="lightblue" points="138.268,-98 -0.0894712,-98 -0.0894712,-62 138.268,-62 138.268,-98"/>
<text text-anchor="middle" x="69.0894" y="-75.8" font-family="Helvetica,sans-Serif" font-size="14.00">0:BuyButtonClicked</text>
</g>
<!-- SaleDetector -->
<g id="node2" class="node"><title>SaleDetector</title>
<ellipse fill="none" stroke="blue" cx="242.783" cy="-53" rx="68.7084" ry="18"/>
<text text-anchor="middle" x="242.783" y="-48.8" font-family="Helvetica,sans-Serif" font-size="14.00">2:SaleDetector</text>
</g>
<!-- BuyButtonClicked&#45;&gt;SaleDetector -->
<g id="edge1" class="edge"><title>BuyButtonClicked&#45;&gt;SaleDetector</title>
<path fill="none" stroke="black" d="M138.44,-69.2513C150.013,-67.4314 162.028,-65.5419 173.597,-63.7227"/>
<polygon fill="black" stroke="black" points="174.29,-67.1567 183.625,-62.1457 173.203,-60.2417 174.29,-67.1567"/>
</g>
<!-- SaleCompleted -->
<g id="node4" class="node"><title>SaleCompleted</title>
<polygon fill="limegreen" stroke="limegreen" points="474.974,-102 351.199,-102 351.199,-66 474.974,-66 474.974,-102"/>
<polygon fill="none" stroke="limegreen" points="478.987,-106 347.187,-106 347.187,-62 478.987,-62 478.987,-106"/>
<text text-anchor="middle" x="413.087" y="-79.8" font-family="Helvetica,sans-Serif" font-size="14.00">4:SaleCompleted</text>
</g>
<!-- SaleDetector&#45;&gt;SaleCompleted -->
<g id="edge3" class="edge"><title>SaleDetector&#45;&gt;SaleCompleted</title>
<path fill="none" stroke="black" d="M299.358,-63.2365C311.446,-65.463 324.427,-67.854 337.126,-70.1929"/>
<polygon fill="black" stroke="black" points="336.758,-73.684 347.227,-72.0534 338.026,-66.7998 336.758,-73.684"/>
</g>
<!-- Balance -->
<g id="node5" class="node"><title>Balance</title>
<polygon fill="limegreen" stroke="limegreen" points="452.343,-40 373.83,-40 373.83,-4 452.343,-4 452.343,-40"/>
<polygon fill="none" stroke="limegreen" points="456.356,-44 369.818,-44 369.818,-0 456.356,-0 456.356,-44"/>
<text text-anchor="middle" x="413.087" y="-17.8" font-family="Helvetica,sans-Serif" font-size="14.00">3:Balance</text>
</g>
<!-- SaleDetector&#45;&gt;Balance -->
<g id="edge4" class="edge"><title>SaleDetector&#45;&gt;Balance</title>
<path fill="none" stroke="black" d="M299.358,-42.7635C318.837,-39.1757 340.634,-35.1609 359.831,-31.625"/>
<polygon fill="black" stroke="black" points="360.701,-35.0237 369.902,-29.7701 359.433,-28.1395 360.701,-35.0237"/>
</g>
<!-- CoinInserted -->
<g id="node3" class="node"><title>CoinInserted</title>
<polygon fill="lightblue" stroke="lightblue" points="122.644,-44 15.5347,-44 15.5347,-8 122.644,-8 122.644,-44"/>
<text text-anchor="middle" x="69.0894" y="-21.8" font-family="Helvetica,sans-Serif" font-size="14.00">1:CoinInserted</text>
</g>
<!-- CoinInserted&#45;&gt;SaleDetector -->
<g id="edge2" class="edge"><title>CoinInserted&#45;&gt;SaleDetector</title>
<path fill="none" stroke="black" d="M123.004,-34.3212C138.915,-36.8233 156.605,-39.6052 173.369,-42.2415"/>
<polygon fill="black" stroke="black" points="173.241,-45.7643 183.664,-43.8604 174.329,-38.8493 173.241,-45.7643"/>
</g>
</g>
</svg>
