<?xml version="1.0" encoding="UTF-8" standalone="no"?>
<!DOCTYPE svg PUBLIC "-//W3C//DTD SVG 1.1//EN"
 "http://www.w3.org/Graphics/SVG/1.1/DTD/svg11.dtd">
<!-- Generated by graphviz version 2.38.0 (20140413.2041)
 -->
<!-- Title: GraphAnalyzer Pages: 1 -->
<svg width="864pt" height="235pt"
 viewBox="0.00 0.00 864.00 235.01" xmlns="http://www.w3.org/2000/svg" xmlns:xlink="http://www.w3.org/1999/xlink">
<g id="graph0" class="graph" transform="scale(0.90388 0.90388) rotate(0) translate(4 256)">
<title>GraphAnalyzer</title>
<polygon fill="white" stroke="none" points="-4,4 -4,-256 951.879,-256 951.879,4 -4,4"/>
<!-- RobotConfig -->
<g id="node1" class="node"><title>RobotConfig</title>
<polygon fill="lightblue" stroke="lightblue" points="152.355,-252 47.347,-252 47.347,-216 152.355,-216 152.355,-252"/>
<text text-anchor="middle" x="99.8511" y="-229.8" font-family="Helvetica,sans-Serif" font-size="14.00">0:RobotConfig</text>
</g>
<!-- ExtendedKalmanPosePredictor -->
<g id="node2" class="node"><title>ExtendedKalmanPosePredictor</title>
<ellipse fill="none" stroke="blue" cx="376.082" cy="-126" rx="140.259" ry="18"/>
<text text-anchor="middle" x="376.082" y="-121.8" font-family="Helvetica,sans-Serif" font-size="14.00">5:ExtendedKalmanPosePredictor</text>
</g>
<!-- RobotConfig&#45;&gt;ExtendedKalmanPosePredictor -->
<g id="edge1" class="edge"><title>RobotConfig&#45;&gt;ExtendedKalmanPosePredictor</title>
<path fill="none" stroke="black" d="M152.41,-221.653C167.791,-217.506 184.576,-212.515 199.702,-207 246.27,-190.02 297.522,-165.649 332.529,-148.08"/>
<polygon fill="black" stroke="black" points="334.162,-151.176 341.51,-143.543 331.006,-144.928 334.162,-151.176"/>
</g>
<!-- LocalizationBelief -->
<g id="node8" class="node"><title>LocalizationBelief</title>
<polygon fill="red" stroke="red" points="688.912,-117 552.644,-117 552.644,-81 688.912,-81 688.912,-117"/>
<text text-anchor="middle" x="620.778" y="-94.8" font-family="Helvetica,sans-Serif" font-size="14.00">7:LocalizationBelief</text>
</g>
<!-- ExtendedKalmanPosePredictor&#45;&gt;LocalizationBelief -->
<g id="edge8" class="edge"><title>ExtendedKalmanPosePredictor&#45;&gt;LocalizationBelief</title>
<path fill="none" stroke="black" d="M482.826,-114.236C502.857,-112.007 523.465,-109.715 542.418,-107.606"/>
<polygon fill="black" stroke="black" points="542.912,-111.073 552.463,-106.489 542.138,-104.116 542.912,-111.073"/>
</g>
<!-- InitialPose -->
<g id="node3" class="node"><title>InitialPose</title>
<polygon fill="lightblue" stroke="lightblue" points="146.12,-198 53.5821,-198 53.5821,-162 146.12,-162 146.12,-198"/>
<text text-anchor="middle" x="99.8511" y="-175.8" font-family="Helvetica,sans-Serif" font-size="14.00">1:InitialPose</text>
</g>
<!-- InitialPose&#45;&gt;ExtendedKalmanPosePredictor -->
<g id="edge2" class="edge"><title>InitialPose&#45;&gt;ExtendedKalmanPosePredictor</title>
<path fill="none" stroke="black" d="M146.135,-171.083C184.766,-163.476 241.395,-152.325 288.667,-143.016"/>
<polygon fill="black" stroke="black" points="289.467,-146.426 298.602,-141.06 288.114,-139.558 289.467,-146.426"/>
</g>
<!-- WheelSpeeds -->
<g id="node4" class="node"><title>WheelSpeeds</title>
<polygon fill="lightblue" stroke="lightblue" points="157.192,-144 42.5101,-144 42.5101,-108 157.192,-108 157.192,-144"/>
<text text-anchor="middle" x="99.8511" y="-121.8" font-family="Helvetica,sans-Serif" font-size="14.00">2:WheelSpeeds</text>
</g>
<!-- WheelSpeeds&#45;&gt;ExtendedKalmanPosePredictor -->
<g id="edge3" class="edge"><title>WheelSpeeds&#45;&gt;ExtendedKalmanPosePredictor</title>
<path fill="none" stroke="black" d="M157.339,-126C177.459,-126 201.171,-126 225.41,-126"/>
<polygon fill="black" stroke="black" points="225.451,-129.5 235.451,-126 225.451,-122.5 225.451,-129.5"/>
</g>
<!-- GPSPosition -->
<g id="node5" class="node"><title>GPSPosition</title>
<polygon fill="lightblue" stroke="lightblue" points="153.399,-36 46.3032,-36 46.3032,-0 153.399,-0 153.399,-36"/>
<text text-anchor="middle" x="99.8511" y="-13.8" font-family="Helvetica,sans-Serif" font-size="14.00">3:GPSPosition</text>
</g>
<!-- KalmanPoseCorrector -->
<g id="node6" class="node"><title>KalmanPoseCorrector</title>
<ellipse fill="none" stroke="blue" cx="376.082" cy="-72" rx="104.458" ry="18"/>
<text text-anchor="middle" x="376.082" y="-67.8" font-family="Helvetica,sans-Serif" font-size="14.00">6:KalmanPoseCorrector</text>
</g>
<!-- GPSPosition&#45;&gt;KalmanPoseCorrector -->
<g id="edge4" class="edge"><title>GPSPosition&#45;&gt;KalmanPoseCorrector</title>
<path fill="none" stroke="black" d="M153.401,-28.3478C193.971,-36.3366 250.745,-47.5162 296.68,-56.5615"/>
<polygon fill="black" stroke="black" points="296.118,-60.018 306.606,-58.5161 297.47,-53.1499 296.118,-60.018"/>
</g>
<!-- KalmanPoseCorrector&#45;&gt;LocalizationBelief -->
<g id="edge7" class="edge"><title>KalmanPoseCorrector&#45;&gt;LocalizationBelief</title>
<path fill="none" stroke="black" d="M464.358,-81.7095C489.798,-84.5397 517.413,-87.6119 542.211,-90.3707"/>
<polygon fill="black" stroke="black" points="541.962,-93.8644 552.288,-91.4917 542.736,-86.9074 541.962,-93.8644"/>
</g>
<!-- LaggedLocalizationBelief -->
<g id="node7" class="node"><title>LaggedLocalizationBelief</title>
<polygon fill="lightblue" stroke="lightblue" points="199.553,-90 0.148704,-90 0.148704,-54 199.553,-54 199.553,-90"/>
<text text-anchor="middle" x="99.8511" y="-67.8" font-family="Helvetica,sans-Serif" font-size="14.00">4:Lagged&lt;LocalizationBelief&gt;</text>
</g>
<!-- LaggedLocalizationBelief&#45;&gt;ExtendedKalmanPosePredictor -->
<g id="edge5" class="edge"><title>LaggedLocalizationBelief&#45;&gt;ExtendedKalmanPosePredictor</title>
<path fill="none" stroke="black" d="M190.419,-90.015C205.531,-93.0311 221.061,-96.1161 235.702,-99 252.38,-102.285 270.187,-105.76 287.305,-109.083"/>
<polygon fill="black" stroke="black" points="286.807,-112.552 297.29,-111.02 288.14,-105.68 286.807,-112.552"/>
</g>
<!-- LaggedLocalizationBelief&#45;&gt;KalmanPoseCorrector -->
<g id="edge6" class="edge"><title>LaggedLocalizationBelief&#45;&gt;KalmanPoseCorrector</title>
<path fill="none" stroke="black" d="M199.855,-72C219.804,-72 240.922,-72 261.329,-72"/>
<polygon fill="black" stroke="black" points="261.602,-75.5001 271.602,-72 261.602,-68.5001 261.602,-75.5001"/>
</g>
<!-- LagLocalizationBelief -->
<g id="node9" class="node"><title>LagLocalizationBelief</title>
<ellipse fill="none" stroke="blue" cx="836.487" cy="-99" rx="111.284" ry="18"/>
<text text-anchor="middle" x="836.487" y="-94.8" font-family="Helvetica,sans-Serif" font-size="14.00">8:Lag&lt;LocalizationBelief&gt;</text>
</g>
<!-- LocalizationBelief&#45;&gt;LagLocalizationBelief -->
<g id="edge9" class="edge"><title>LocalizationBelief&#45;&gt;LagLocalizationBelief</title>
<path fill="none" stroke="black" d="M689.104,-99C697.46,-99 706.191,-99 715.049,-99"/>
<polygon fill="black" stroke="black" points="715.091,-102.5 725.091,-99 715.091,-95.5001 715.091,-102.5"/>
</g>
<!-- LagLocalizationBelief&#45;&gt;LaggedLocalizationBelief -->
<g id="edge10" class="edge"><title>LagLocalizationBelief&#45;&gt;LaggedLocalizationBelief</title>
<path fill="none" stroke="red" stroke-dasharray="1,5" d="M763.703,-85.3574C739.975,-80.9555 713.425,-76.1455 689.095,-72 490.098,-38.0937 436.583,-25.0874 235.702,-45 219.961,-46.5603 203.336,-49.1213 187.339,-52.0605"/>
<polygon fill="red" stroke="red" points="186.645,-48.6298 177.473,-53.9339 187.95,-55.5069 186.645,-48.6298"/>
</g>
</g>
</svg>
