<?xml version="1.0" encoding="UTF-8" standalone="no"?>
<!DOCTYPE svg PUBLIC "-//W3C//DTD SVG 1.1//EN"
 "http://www.w3.org/Graphics/SVG/1.1/DTD/svg11.dtd">
<!-- Generated by graphviz version 2.38.0 (20140413.2041)
 -->
<!-- Title: GraphAnalyzer Pages: 1 -->
<svg width="569pt" height="44pt"
 viewBox="0.00 0.00 568.53 44.00" xmlns="http://www.w3.org/2000/svg" xmlns:xlink="http://www.w3.org/1999/xlink">
<g id="graph0" class="graph" transform="scale(1 1) rotate(0) translate(4 40)">
<title>GraphAnalyzer</title>
<polygon fill="white" stroke="none" points="-4,4 -4,-40 564.534,-40 564.534,4 -4,4"/>
<!-- TemperatureSample -->
<g id="node1" class="node"><title>TemperatureSample</title>
<polygon fill="lightblue" stroke="lightblue" points="153.606,-36 0.131124,-36 0.131124,-0 153.606,-0 153.606,-36"/>
<text text-anchor="middle" x="76.8687" y="-13.8" font-family="Helvetica,sans-Serif" font-size="14.00">0:TemperatureSample</text>
</g>
<!-- OverheatingDetector -->
<g id="node2" class="node"><title>OverheatingDetector</title>
<ellipse fill="none" stroke="blue" cx="288.819" cy="-18" rx="99.1626" ry="18"/>
<text text-anchor="middle" x="288.819" y="-13.8" font-family="Helvetica,sans-Serif" font-size="14.00">1:OverheatingDetector</text>
</g>
<!-- TemperatureSample&#45;&gt;OverheatingDetector -->
<g id="edge1" class="edge"><title>TemperatureSample&#45;&gt;OverheatingDetector</title>
<path fill="none" stroke="black" d="M153.665,-18C162.023,-18 170.649,-18 179.307,-18"/>
<polygon fill="black" stroke="black" points="179.471,-21.5001 189.471,-18 179.471,-14.5001 179.471,-21.5001"/>
</g>
<!-- OverheatingState -->
<g id="node3" class="node"><title>OverheatingState</title>
<polygon fill="limegreen" stroke="limegreen" points="560.351,-36 424.082,-36 424.082,-0 560.351,-0 560.351,-36"/>
<text text-anchor="middle" x="492.217" y="-13.8" font-family="Helvetica,sans-Serif" font-size="14.00">2:OverheatingState</text>
</g>
<!-- OverheatingDetector&#45;&gt;OverheatingState -->
<g id="edge2" class="edge"><title>OverheatingDetector&#45;&gt;OverheatingState</title>
<path fill="none" stroke="black" d="M388.158,-18C396.747,-18 405.36,-18 413.745,-18"/>
<polygon fill="black" stroke="black" points="413.843,-21.5001 423.843,-18 413.843,-14.5001 413.843,-21.5001"/>
</g>
</g>
</svg>
