<?xml version="1.0" encoding="UTF-8" standalone="no"?>
<!DOCTYPE svg PUBLIC "-//W3C//DTD SVG 1.1//EN"
 "http://www.w3.org/Graphics/SVG/1.1/DTD/svg11.dtd">
<!-- Generated by graphviz version 2.38.0 (20140413.2041)
 -->
<!-- Title: GraphAnalyzer Pages: 1 -->
<svg width="329pt" height="44pt"
 viewBox="0.00 0.00 329.23 44.00" xmlns="http://www.w3.org/2000/svg" xmlns:xlink="http://www.w3.org/1999/xlink">
<g id="graph0" class="graph" transform="scale(1 1) rotate(0) translate(4 40)">
<title>GraphAnalyzer</title>
<polygon fill="white" stroke="none" points="-4,4 -4,-40 325.232,-40 325.232,4 -4,4"/>
<!-- T -->
<g id="node1" class="node"><title>T</title>
<polygon fill="lightblue" stroke="lightblue" points="54,-36 0,-36 0,-0 54,-0 54,-36"/>
<text text-anchor="middle" x="27" y="-13.8" font-family="Helvetica,sans-Serif" font-size="14.00">0:T</text>
</g>
<!-- Lag -->
<g id="node2" class="node"><title>Lag</title>
<ellipse fill="none" stroke="blue" cx="137.968" cy="-18" rx="47.9358" ry="18"/>
<text text-anchor="middle" x="137.968" y="-13.8" font-family="Helvetica,sans-Serif" font-size="14.00">1:Lag&lt;T&gt;</text>
</g>
<!-- T&#45;&gt;Lag -->
<g id="edge1" class="edge"><title>T&#45;&gt;Lag</title>
<path fill="none" stroke="black" d="M54.1005,-18C61.8775,-18 70.7248,-18 79.6736,-18"/>
<polygon fill="black" stroke="black" points="79.7684,-21.5001 89.7684,-18 79.7684,-14.5001 79.7684,-21.5001"/>
</g>
<!-- Lagged -->
<g id="node3" class="node"><title>Lagged</title>
<polygon fill="limegreen" stroke="limegreen" points="321.38,-36 221.787,-36 221.787,-0 321.38,-0 321.38,-36"/>
<text text-anchor="middle" x="271.584" y="-13.8" font-family="Helvetica,sans-Serif" font-size="14.00">2:Lagged&lt;T&gt;</text>
</g>
<!-- Lag&#45;&gt;Lagged -->
<g id="edge2" class="edge"><title>Lag&#45;&gt;Lagged</title>
<path fill="none" stroke="red" stroke-dasharray="1,5" d="M186.113,-18C194.293,-18 202.893,-18 211.347,-18"/>
<polygon fill="red" stroke="red" points="211.549,-21.5001 221.549,-18 211.549,-14.5001 211.549,-21.5001"/>
</g>
</g>
</svg>
