<?xml version="1.0" encoding="UTF-8" standalone="no"?>
<!DOCTYPE svg PUBLIC "-//W3C//DTD SVG 1.1//EN"
 "http://www.w3.org/Graphics/SVG/1.1/DTD/svg11.dtd">
<!-- Generated by graphviz version 2.38.0 (20140413.2041)
 -->
<!-- Title: Graphical Class Hierarchy Pages: 1 -->
<svg width="490pt" height="361pt"
 viewBox="0.00 0.00 489.84 361.00" xmlns="http://www.w3.org/2000/svg" xmlns:xlink="http://www.w3.org/1999/xlink">
<g id="graph0" class="graph" transform="scale(1 1) rotate(0) translate(4 357)">
<title>Graphical Class Hierarchy</title>
<!-- Node33 -->
<g id="node1" class="node"><title>Node33</title>
<g id="a_node1"><a xlink:href="classDetectorGraph_1_1FuturePublisher.html" target="_top" xlink:title="DetectorGraph::FuturePublisher\l\&lt; Lagged\&lt; T \&gt; \&gt;">
<polygon fill="none" stroke="black" points="151.497,-324.5 151.497,-352.5 309.23,-352.5 309.23,-324.5 151.497,-324.5"/>
<text text-anchor="start" x="159.497" y="-340.5" font-family="Helvetica,sans-Serif" font-size="10.00">DetectorGraph::FuturePublisher</text>
<text text-anchor="middle" x="230.364" y="-330.5" font-family="Helvetica,sans-Serif" font-size="10.00">&lt; Lagged&lt; T &gt; &gt;</text>
</a>
</g>
</g>
<!-- Node6 -->
<g id="node2" class="node"><title>Node6</title>
<g id="a_node2"><a xlink:href="classDetectorGraph_1_1Lag.html" target="_top" xlink:title="Produces a Lagged&lt;T&gt; for T. ">
<polygon fill="none" stroke="black" points="350.123,-282.5 350.123,-300.5 476.943,-300.5 476.943,-282.5 350.123,-282.5"/>
<text text-anchor="middle" x="413.533" y="-288.5" font-family="Helvetica,sans-Serif" font-size="10.00">DetectorGraph::Lag&lt; T &gt;</text>
</a>
</g>
</g>
<!-- Node33&#45;&gt;Node6 -->
<g id="edge1" class="edge"><title>Node33&#45;&gt;Node6</title>
<path fill="none" stroke="midnightblue" d="M295.705,-321.808C323.301,-314.649 354.454,-306.567 377.645,-300.551"/>
<polygon fill="midnightblue" stroke="midnightblue" points="294.521,-318.499 285.721,-324.398 296.279,-325.275 294.521,-318.499"/>
</g>
<!-- Node24 -->
<g id="node3" class="node"><title>Node24</title>
<g id="a_node3"><a xlink:href="classDetectorGraph_1_1Publisher.html" target="_top" xlink:title="DetectorGraph::Publisher\l\&lt; OutA \&gt;">
<polygon fill="none" stroke="black" points="165.948,-193.5 165.948,-221.5 294.78,-221.5 294.78,-193.5 165.948,-193.5"/>
<text text-anchor="start" x="173.948" y="-209.5" font-family="Helvetica,sans-Serif" font-size="10.00">DetectorGraph::Publisher</text>
<text text-anchor="middle" x="230.364" y="-199.5" font-family="Helvetica,sans-Serif" font-size="10.00">&lt; OutA &gt;</text>
</a>
</g>
</g>
<!-- Node7 -->
<g id="node4" class="node"><title>Node7</title>
<g id="a_node4"><a xlink:href="classDetectorGraph_1_1TestSplitterDetector.html" target="_top" xlink:title="DetectorGraph::TestSplitter\lDetector\&lt; OutA, OutB \&gt;">
<polygon fill="none" stroke="black" points="345.23,-170.5 345.23,-198.5 481.836,-198.5 481.836,-170.5 345.23,-170.5"/>
<text text-anchor="start" x="353.23" y="-186.5" font-family="Helvetica,sans-Serif" font-size="10.00">DetectorGraph::TestSplitter</text>
<text text-anchor="middle" x="413.533" y="-176.5" font-family="Helvetica,sans-Serif" font-size="10.00">Detector&lt; OutA, OutB &gt;</text>
</a>
</g>
</g>
<!-- Node24&#45;&gt;Node7 -->
<g id="edge2" class="edge"><title>Node24&#45;&gt;Node7</title>
<path fill="none" stroke="midnightblue" d="M304.999,-198.152C318.25,-196.47 332.003,-194.724 345.069,-193.065"/>
<polygon fill="midnightblue" stroke="midnightblue" points="304.462,-194.692 294.983,-199.423 305.344,-201.636 304.462,-194.692"/>
</g>
<!-- Node23 -->
<g id="node5" class="node"><title>Node23</title>
<g id="a_node5"><a xlink:href="classDetectorGraph_1_1Publisher.html" target="_top" xlink:title="DetectorGraph::Publisher\l\&lt; OutB \&gt;">
<polygon fill="none" stroke="black" points="165.948,-146.5 165.948,-174.5 294.78,-174.5 294.78,-146.5 165.948,-146.5"/>
<text text-anchor="start" x="173.948" y="-162.5" font-family="Helvetica,sans-Serif" font-size="10.00">DetectorGraph::Publisher</text>
<text text-anchor="middle" x="230.364" y="-152.5" font-family="Helvetica,sans-Serif" font-size="10.00">&lt; OutB &gt;</text>
</a>
</g>
</g>
<!-- Node23&#45;&gt;Node7 -->
<g id="edge3" class="edge"><title>Node23&#45;&gt;Node7</title>
<path fill="none" stroke="midnightblue" d="M304.999,-170.255C318.25,-172.01 332.003,-173.832 345.069,-175.563"/>
<polygon fill="midnightblue" stroke="midnightblue" points="305.356,-166.771 294.983,-168.928 304.436,-173.711 305.356,-166.771"/>
</g>
<!-- Node19 -->
<g id="node6" class="node"><title>Node19</title>
<g id="a_node6"><a xlink:href="classDetectorGraph_1_1SubscriberInterface.html" target="_top" xlink:title="A Pure interface that declares the Subscriber behavior. ">
<polygon fill="none" stroke="black" points="162.894,-277.5 162.894,-305.5 297.834,-305.5 297.834,-277.5 162.894,-277.5"/>
<text text-anchor="start" x="170.894" y="-293.5" font-family="Helvetica,sans-Serif" font-size="10.00">DetectorGraph::Subscriber</text>
<text text-anchor="middle" x="230.364" y="-283.5" font-family="Helvetica,sans-Serif" font-size="10.00">Interface&lt; T &gt;</text>
</a>
</g>
</g>
<!-- Node19&#45;&gt;Node6 -->
<g id="edge4" class="edge"><title>Node19&#45;&gt;Node6</title>
<path fill="none" stroke="midnightblue" d="M308.103,-291.5C322.04,-291.5 336.425,-291.5 349.896,-291.5"/>
<polygon fill="midnightblue" stroke="midnightblue" points="308.053,-288 298.053,-291.5 308.053,-295 308.053,-288"/>
</g>
<!-- Node18 -->
<g id="node7" class="node"><title>Node18</title>
<g id="a_node7"><a xlink:href="classDetectorGraph_1_1SubscriberInterface.html" target="_top" xlink:title="DetectorGraph::Subscriber\lInterface\&lt; TestSplitterTrigger\l\&lt; OutA, OutB \&gt; \&gt;">
<polygon fill="none" stroke="black" points="158.301,-89.5 158.301,-127.5 302.426,-127.5 302.426,-89.5 158.301,-89.5"/>
<text text-anchor="start" x="166.301" y="-115.5" font-family="Helvetica,sans-Serif" font-size="10.00">DetectorGraph::Subscriber</text>
<text text-anchor="start" x="166.301" y="-105.5" font-family="Helvetica,sans-Serif" font-size="10.00">Interface&lt; TestSplitterTrigger</text>
<text text-anchor="middle" x="230.364" y="-95.5" font-family="Helvetica,sans-Serif" font-size="10.00">&lt; OutA, OutB &gt; &gt;</text>
</a>
</g>
</g>
<!-- Node18&#45;&gt;Node7 -->
<g id="edge5" class="edge"><title>Node18&#45;&gt;Node7</title>
<path fill="none" stroke="midnightblue" d="M293.781,-131.302C299.025,-133.352 304.231,-135.435 309.23,-137.5 334.361,-147.882 362.417,-160.728 382.941,-170.365"/>
<polygon fill="midnightblue" stroke="midnightblue" points="294.925,-127.992 284.336,-127.656 292.405,-134.522 294.925,-127.992"/>
</g>
<!-- Node0 -->
<g id="node8" class="node"><title>Node0</title>
<g id="a_node8"><a xlink:href="classDetectorGraph_1_1Vertex.html" target="_top" xlink:title="Define behaviors of a vertex in a graph. ">
<polygon fill="none" stroke="black" points="0,-146.5 0,-164.5 115.497,-164.5 115.497,-146.5 0,-146.5"/>
<text text-anchor="middle" x="57.7485" y="-152.5" font-family="Helvetica,sans-Serif" font-size="10.00">DetectorGraph::Vertex</text>
</a>
</g>
</g>
<!-- Node1 -->
<g id="node9" class="node"><title>Node1</title>
<g id="a_node9"><a xlink:href="classDetectorGraph_1_1BaseTopic.html" target="_top" xlink:title="Provide interface for a topic. ">
<polygon fill="none" stroke="black" points="163.724,-52.5 163.724,-70.5 297.004,-70.5 297.004,-52.5 163.724,-52.5"/>
<text text-anchor="middle" x="230.364" y="-58.5" font-family="Helvetica,sans-Serif" font-size="10.00">DetectorGraph::BaseTopic</text>
</a>
</g>
</g>
<!-- Node0&#45;&gt;Node1 -->
<g id="edge6" class="edge"><title>Node0&#45;&gt;Node1</title>
<path fill="none" stroke="midnightblue" d="M74.3141,-139.209C91.5936,-122.076 121.08,-95.5573 151.497,-80.5 159.853,-76.3639 169.168,-73.0913 178.369,-70.5136"/>
<polygon fill="midnightblue" stroke="midnightblue" points="71.8054,-136.768 67.2743,-146.345 76.7888,-141.684 71.8054,-136.768"/>
</g>
<!-- Node5 -->
<g id="node13" class="node"><title>Node5</title>
<g id="a_node13"><a xlink:href="classDetectorGraph_1_1Detector.html" target="_top" xlink:title="A unit of logic in a DetectorGraph. ">
<polygon fill="none" stroke="black" points="167.896,-240.5 167.896,-258.5 292.832,-258.5 292.832,-240.5 167.896,-240.5"/>
<text text-anchor="middle" x="230.364" y="-246.5" font-family="Helvetica,sans-Serif" font-size="10.00">DetectorGraph::Detector</text>
</a>
</g>
</g>
<!-- Node0&#45;&gt;Node5 -->
<g id="edge10" class="edge"><title>Node0&#45;&gt;Node5</title>
<path fill="none" stroke="midnightblue" d="M73.9628,-171.813C91.1356,-189.234 120.714,-216.37 151.497,-231.5 158.968,-235.172 167.215,-238.112 175.463,-240.46"/>
<polygon fill="midnightblue" stroke="midnightblue" points="76.4444,-169.344 66.9858,-164.571 71.4032,-174.201 76.4444,-169.344"/>
</g>
<!-- Node2 -->
<g id="node10" class="node"><title>Node2</title>
<g id="a_node10"><a xlink:href="classDetectorGraph_1_1Topic.html" target="_top" xlink:title="Manage data and its handler. ">
<polygon fill="none" stroke="black" points="346.793,-94.5 346.793,-112.5 480.273,-112.5 480.273,-94.5 346.793,-94.5"/>
<text text-anchor="middle" x="413.533" y="-100.5" font-family="Helvetica,sans-Serif" font-size="10.00">DetectorGraph::Topic&lt; T &gt;</text>
</a>
</g>
</g>
<!-- Node1&#45;&gt;Node2 -->
<g id="edge7" class="edge"><title>Node1&#45;&gt;Node2</title>
<path fill="none" stroke="midnightblue" d="M280.232,-72.829C309.465,-79.6059 346.112,-88.1019 373.42,-94.4325"/>
<polygon fill="midnightblue" stroke="midnightblue" points="280.761,-69.3589 270.229,-70.5101 279.18,-76.1781 280.761,-69.3589"/>
</g>
<!-- Node3 -->
<g id="node11" class="node"><title>Node3</title>
<g id="a_node11"><a xlink:href="classDetectorGraph_1_1Topic.html" target="_top" xlink:title="DetectorGraph::Topic\l\&lt; OutA \&gt;">
<polygon fill="none" stroke="black" points="358.29,-47.5 358.29,-75.5 468.777,-75.5 468.777,-47.5 358.29,-47.5"/>
<text text-anchor="start" x="366.29" y="-63.5" font-family="Helvetica,sans-Serif" font-size="10.00">DetectorGraph::Topic</text>
<text text-anchor="middle" x="413.533" y="-53.5" font-family="Helvetica,sans-Serif" font-size="10.00">&lt; OutA &gt;</text>
</a>
</g>
</g>
<!-- Node1&#45;&gt;Node3 -->
<g id="edge8" class="edge"><title>Node1&#45;&gt;Node3</title>
<path fill="none" stroke="midnightblue" d="M307.499,-61.5C324.499,-61.5 342.197,-61.5 358.112,-61.5"/>
<polygon fill="midnightblue" stroke="midnightblue" points="307.026,-58.0001 297.026,-61.5 307.026,-65.0001 307.026,-58.0001"/>
</g>
<!-- Node4 -->
<g id="node12" class="node"><title>Node4</title>
<g id="a_node12"><a xlink:href="classDetectorGraph_1_1Topic.html" target="_top" xlink:title="DetectorGraph::Topic\l\&lt; OutB \&gt;">
<polygon fill="none" stroke="black" points="358.29,-0.5 358.29,-28.5 468.777,-28.5 468.777,-0.5 358.29,-0.5"/>
<text text-anchor="start" x="366.29" y="-16.5" font-family="Helvetica,sans-Serif" font-size="10.00">DetectorGraph::Topic</text>
<text text-anchor="middle" x="413.533" y="-6.5" font-family="Helvetica,sans-Serif" font-size="10.00">&lt; OutB &gt;</text>
</a>
</g>
</g>
<!-- Node1&#45;&gt;Node4 -->
<g id="edge9" class="edge"><title>Node1&#45;&gt;Node4</title>
<path fill="none" stroke="midnightblue" d="M276.197,-49.8691C301.085,-43.4125 332.221,-35.3351 358.452,-28.5299"/>
<polygon fill="midnightblue" stroke="midnightblue" points="275.096,-46.5389 266.295,-52.4379 276.854,-53.3146 275.096,-46.5389"/>
</g>
<!-- Node5&#45;&gt;Node6 -->
<g id="edge11" class="edge"><title>Node5&#45;&gt;Node6</title>
<path fill="none" stroke="midnightblue" d="M280.232,-260.829C309.465,-267.606 346.112,-276.102 373.42,-282.432"/>
<polygon fill="midnightblue" stroke="midnightblue" points="280.761,-257.359 270.229,-258.51 279.18,-264.178 280.761,-257.359"/>
</g>
<!-- Node5&#45;&gt;Node7 -->
<g id="edge12" class="edge"><title>Node5&#45;&gt;Node7</title>
<path fill="none" stroke="midnightblue" d="M287.238,-238.011C294.698,-236.062 302.196,-233.887 309.23,-231.5 335.913,-222.448 365.019,-208.843 385.516,-198.597"/>
<polygon fill="midnightblue" stroke="midnightblue" points="286.351,-234.625 277.495,-240.44 288.045,-241.417 286.351,-234.625"/>
</g>
</g>
</svg>
