<?xml version="1.0" encoding="UTF-8" standalone="no"?>
<!DOCTYPE svg PUBLIC "-//W3C//DTD SVG 1.1//EN"
 "http://www.w3.org/Graphics/SVG/1.1/DTD/svg11.dtd">
<!-- Generated by graphviz version 2.38.0 (20140413.2041)
 -->
<!-- Title: Graphical Class Hierarchy Pages: 1 -->
<svg width="326pt" height="121pt"
 viewBox="0.00 0.00 325.55 121.00" xmlns="http://www.w3.org/2000/svg" xmlns:xlink="http://www.w3.org/1999/xlink">
<g id="graph0" class="graph" transform="scale(1 1) rotate(0) translate(4 117)">
<title>Graphical Class Hierarchy</title>
<!-- Node28 -->
<g id="node1" class="node"><title>Node28</title>
<polygon fill="none" stroke="#bfbfbf" points="50.5811,-89.5 50.5811,-107.5 83.2559,-107.5 83.2559,-89.5 50.5811,-89.5"/>
<text text-anchor="middle" x="66.9185" y="-95.5" font-family="Helvetica,sans-Serif" font-size="10.00">pair</text>
</g>
<!-- Node3 -->
<g id="node2" class="node"><title>Node3</title>
<g id="a_node2"><a xlink:href="structDetectorGraph_1_1TestSplitterTrigger.html" target="_top" xlink:title="DetectorGraph::TestSplitter\lTrigger\&lt; OutA, OutB \&gt;">
<polygon fill="none" stroke="black" points="175.389,-84.5 175.389,-112.5 311.994,-112.5 311.994,-84.5 175.389,-84.5"/>
<text text-anchor="start" x="183.389" y="-100.5" font-family="Helvetica,sans-Serif" font-size="10.00">DetectorGraph::TestSplitter</text>
<text text-anchor="middle" x="243.691" y="-90.5" font-family="Helvetica,sans-Serif" font-size="10.00">Trigger&lt; OutA, OutB &gt;</text>
</a>
</g>
</g>
<!-- Node28&#45;&gt;Node3 -->
<g id="edge1" class="edge"><title>Node28&#45;&gt;Node3</title>
<path fill="none" stroke="midnightblue" d="M93.636,-98.5C115.043,-98.5 146.519,-98.5 175.038,-98.5"/>
<polygon fill="midnightblue" stroke="midnightblue" points="93.4284,-95.0001 83.4284,-98.5 93.4284,-102 93.4284,-95.0001"/>
</g>
<!-- Node0 -->
<g id="node3" class="node"><title>Node0</title>
<g id="a_node3"><a xlink:href="structDetectorGraph_1_1TopicState.html" target="_top" xlink:title="Base struct for topic data types. ">
<polygon fill="none" stroke="black" points="0,-47.5 0,-65.5 133.837,-65.5 133.837,-47.5 0,-47.5"/>
<text text-anchor="middle" x="66.9185" y="-53.5" font-family="Helvetica,sans-Serif" font-size="10.00">DetectorGraph::TopicState</text>
</a>
</g>
</g>
<!-- Node0&#45;&gt;Node3 -->
<g id="edge4" class="edge"><title>Node0&#45;&gt;Node3</title>
<path fill="none" stroke="midnightblue" d="M115.193,-67.8606C136.48,-72.9761 161.823,-79.0663 184.285,-84.4642"/>
<polygon fill="midnightblue" stroke="midnightblue" points="115.953,-64.4436 105.412,-65.5101 114.317,-71.2498 115.953,-64.4436"/>
</g>
<!-- Node1 -->
<g id="node4" class="node"><title>Node1</title>
<g id="a_node4"><a xlink:href="structDetectorGraph_1_1Lagged.html" target="_top" xlink:title="A templated TopicState used as the output of Lag. ">
<polygon fill="none" stroke="black" points="171.939,-47.5 171.939,-65.5 315.444,-65.5 315.444,-47.5 171.939,-47.5"/>
<text text-anchor="middle" x="243.691" y="-53.5" font-family="Helvetica,sans-Serif" font-size="10.00">DetectorGraph::Lagged&lt; T &gt;</text>
</a>
</g>
</g>
<!-- Node0&#45;&gt;Node1 -->
<g id="edge2" class="edge"><title>Node0&#45;&gt;Node1</title>
<path fill="none" stroke="midnightblue" d="M144.257,-56.5C153.429,-56.5 162.767,-56.5 171.857,-56.5"/>
<polygon fill="midnightblue" stroke="midnightblue" points="143.993,-53.0001 133.993,-56.5 143.993,-60.0001 143.993,-53.0001"/>
</g>
<!-- Node2 -->
<g id="node5" class="node"><title>Node2</title>
<g id="a_node5"><a xlink:href="structDetectorGraph_1_1ResumeFromSnapshotTopicState.html" target="_top" xlink:title="DetectorGraph::ResumeFrom\lSnapshotTopicState">
<polygon fill="none" stroke="black" points="169.837,-0.5 169.837,-28.5 317.546,-28.5 317.546,-0.5 169.837,-0.5"/>
<text text-anchor="start" x="177.837" y="-16.5" font-family="Helvetica,sans-Serif" font-size="10.00">DetectorGraph::ResumeFrom</text>
<text text-anchor="middle" x="243.691" y="-6.5" font-family="Helvetica,sans-Serif" font-size="10.00">SnapshotTopicState</text>
</a>
</g>
</g>
<!-- Node0&#45;&gt;Node2 -->
<g id="edge3" class="edge"><title>Node0&#45;&gt;Node2</title>
<path fill="none" stroke="midnightblue" d="M115.193,-45.1394C136.48,-40.0239 161.823,-33.9337 184.285,-28.5358"/>
<polygon fill="midnightblue" stroke="midnightblue" points="114.317,-41.7502 105.412,-47.4899 115.953,-48.5564 114.317,-41.7502"/>
</g>
</g>
</svg>
