<?xml version="1.0" encoding="UTF-8" standalone="no"?>
<!DOCTYPE svg PUBLIC "-//W3C//DTD SVG 1.1//EN"
 "http://www.w3.org/Graphics/SVG/1.1/DTD/svg11.dtd">
<!-- Generated by graphviz version 2.38.0 (20140413.2041)
 -->
<!-- Title: Graphical Class Hierarchy Pages: 1 -->
<svg width="321pt" height="74pt"
 viewBox="0.00 0.00 321.34 74.00" xmlns="http://www.w3.org/2000/svg" xmlns:xlink="http://www.w3.org/1999/xlink">
<g id="graph0" class="graph" transform="scale(1 1) rotate(0) translate(4 70)">
<title>Graphical Class Hierarchy</title>
<!-- Node24 -->
<g id="node1" class="node"><title>Node24</title>
<polygon fill="none" stroke="#bfbfbf" points="50.5811,-42.5 50.5811,-60.5 83.2559,-60.5 83.2559,-42.5 50.5811,-42.5"/>
<text text-anchor="middle" x="66.9185" y="-48.5" font-family="Helvetica,sans-Serif" font-size="10.00">pair</text>
</g>
<!-- Node2 -->
<g id="node2" class="node"><title>Node2</title>
<g id="a_node2"><a xlink:href="structDetectorGraph_1_1TestSplitterTrigger.html" target="_top" xlink:title="DetectorGraph::TestSplitter\lTrigger\&lt; OutA, OutB \&gt;">
<polygon fill="none" stroke="black" points="173.287,-37.5 173.287,-65.5 309.892,-65.5 309.892,-37.5 173.287,-37.5"/>
<text text-anchor="start" x="181.287" y="-53.5" font-family="Helvetica,sans-Serif" font-size="10.00">DetectorGraph::TestSplitter</text>
<text text-anchor="middle" x="241.589" y="-43.5" font-family="Helvetica,sans-Serif" font-size="10.00">Trigger&lt; OutA, OutB &gt;</text>
</a>
</g>
</g>
<!-- Node24&#45;&gt;Node2 -->
<g id="edge1" class="edge"><title>Node24&#45;&gt;Node2</title>
<path fill="none" stroke="midnightblue" d="M93.582,-51.5C114.588,-51.5 145.284,-51.5 173.201,-51.5"/>
<polygon fill="midnightblue" stroke="midnightblue" points="93.5464,-48.0001 83.5464,-51.5 93.5464,-55.0001 93.5464,-48.0001"/>
</g>
<!-- Node0 -->
<g id="node3" class="node"><title>Node0</title>
<g id="a_node3"><a xlink:href="structDetectorGraph_1_1TopicState.html" target="_top" xlink:title="Base struct for topic data types. ">
<polygon fill="none" stroke="black" points="0,-3.5 0,-21.5 133.837,-21.5 133.837,-3.5 0,-3.5"/>
<text text-anchor="middle" x="66.9185" y="-9.5" font-family="Helvetica,sans-Serif" font-size="10.00">DetectorGraph::TopicState</text>
</a>
</g>
</g>
<!-- Node0&#45;&gt;Node2 -->
<g id="edge3" class="edge"><title>Node0&#45;&gt;Node2</title>
<path fill="none" stroke="midnightblue" d="M117.86,-23.7799C136.771,-28.0513 158.535,-32.9669 178.434,-37.4614"/>
<polygon fill="midnightblue" stroke="midnightblue" points="118.492,-20.3346 107.967,-21.5454 116.95,-27.1626 118.492,-20.3346"/>
</g>
<!-- Node1 -->
<g id="node4" class="node"><title>Node1</title>
<g id="a_node4"><a xlink:href="structDetectorGraph_1_1Lagged.html" target="_top" xlink:title="A templated TopicState used as the output of Lag. ">
<polygon fill="none" stroke="black" points="169.837,-0.5 169.837,-18.5 313.342,-18.5 313.342,-0.5 169.837,-0.5"/>
<text text-anchor="middle" x="241.589" y="-6.5" font-family="Helvetica,sans-Serif" font-size="10.00">DetectorGraph::Lagged&lt; T &gt;</text>
</a>
</g>
</g>
<!-- Node0&#45;&gt;Node1 -->
<g id="edge2" class="edge"><title>Node0&#45;&gt;Node1</title>
<path fill="none" stroke="midnightblue" d="M144.352,-11.172C152.758,-11.026 161.29,-10.8777 169.626,-10.7329"/>
<polygon fill="midnightblue" stroke="midnightblue" points="144.121,-7.67542 134.184,-11.3487 144.243,-14.6744 144.121,-7.67542"/>
</g>
</g>
</svg>
