<?xml version="1.0" encoding="UTF-8" standalone="no"?>
<!DOCTYPE svg PUBLIC "-//W3C//DTD SVG 1.1//EN"
 "http://www.w3.org/Graphics/SVG/1.1/DTD/svg11.dtd">
<!-- Generated by graphviz version 2.38.0 (20140413.2041)
 -->
<!-- Title: DetectorGraph::Lagged&lt; T &gt; Pages: 1 -->
<svg width="152pt" height="204pt"
 viewBox="0.00 0.00 151.50 204.00" xmlns="http://www.w3.org/2000/svg" xmlns:xlink="http://www.w3.org/1999/xlink">
<g id="graph0" class="graph" transform="scale(1 1) rotate(0) translate(4 200)">
<title>DetectorGraph::Lagged&lt; T &gt;</title>
<!-- Node0 -->
<g id="node1" class="node"><title>Node0</title>
<polygon fill="#bfbfbf" stroke="black" points="0,-0.5 0,-64.5 143.505,-64.5 143.505,-0.5 0,-0.5"/>
<text text-anchor="middle" x="71.7524" y="-52.5" font-family="Helvetica,sans-Serif" font-size="10.00">DetectorGraph::Lagged&lt; T &gt;</text>
<polyline fill="none" stroke="black" points="0,-46.5 143.505,-46.5 "/>
<text text-anchor="start" x="8" y="-34.5" font-family="Helvetica,sans-Serif" font-size="10.00">+ data</text>
<polyline fill="none" stroke="black" points="0,-28.5 143.505,-28.5 "/>
<text text-anchor="start" x="8" y="-16.5" font-family="Helvetica,sans-Serif" font-size="10.00">+ Lagged()</text>
<text text-anchor="start" x="8" y="-6.5" font-family="Helvetica,sans-Serif" font-size="10.00">+ Lagged()</text>
</g>
<!-- Node1 -->
<g id="node2" class="node"><title>Node1</title>
<g id="a_node2"><a xlink:href="structDetectorGraph_1_1TopicState.html" target="_top" xlink:title="Base struct for topic data types. ">
<polygon fill="none" stroke="black" points="4.83398,-101.5 4.83398,-195.5 138.671,-195.5 138.671,-101.5 4.83398,-101.5"/>
<text text-anchor="middle" x="71.7524" y="-183.5" font-family="Helvetica,sans-Serif" font-size="10.00">DetectorGraph::TopicState</text>
<polyline fill="none" stroke="black" points="4.83398,-177.5 138.671,-177.5 "/>
<text text-anchor="middle" x="71.7524" y="-165.5" font-family="Helvetica,sans-Serif" font-size="10.00"> </text>
<polyline fill="none" stroke="black" points="4.83398,-159.5 138.671,-159.5 "/>
<text text-anchor="start" x="12.834" y="-147.5" font-family="Helvetica,sans-Serif" font-size="10.00">+ TopicState()</text>
<text text-anchor="start" x="12.834" y="-137.5" font-family="Helvetica,sans-Serif" font-size="10.00">+ ~TopicState()</text>
<text text-anchor="start" x="12.834" y="-127.5" font-family="Helvetica,sans-Serif" font-size="10.00">+ GetName()</text>
<text text-anchor="start" x="12.834" y="-117.5" font-family="Helvetica,sans-Serif" font-size="10.00">+ GetId()</text>
<text text-anchor="start" x="12.834" y="-107.5" font-family="Helvetica,sans-Serif" font-size="10.00">+ GetId()</text>
</a>
</g>
</g>
<!-- Node1&#45;&gt;Node0 -->
<g id="edge1" class="edge"><title>Node1&#45;&gt;Node0</title>
<path fill="none" stroke="midnightblue" d="M71.7524,-91.2119C71.7524,-82.0811 71.7524,-72.926 71.7524,-64.684"/>
<polygon fill="none" stroke="midnightblue" points="68.2525,-91.4604 71.7524,-101.46 75.2525,-91.4605 68.2525,-91.4604"/>
</g>
</g>
</svg>
