<?xml version="1.0" encoding="UTF-8" standalone="no"?>
<!DOCTYPE svg PUBLIC "-//W3C//DTD SVG 1.1//EN"
 "http://www.w3.org/Graphics/SVG/1.1/DTD/svg11.dtd">
<!-- Generated by graphviz version 2.38.0 (20140413.2041)
 -->
<!-- Title: DetectorGraph::ResumeFromSnapshotTopicState Pages: 1 -->
<svg width="312pt" height="264pt"
 viewBox="0.00 0.00 312.29 264.00" xmlns="http://www.w3.org/2000/svg" xmlns:xlink="http://www.w3.org/1999/xlink">
<g id="graph0" class="graph" transform="scale(1 1) rotate(0) translate(4 260)">
<title>DetectorGraph::ResumeFromSnapshotTopicState</title>
<!-- Node0 -->
<g id="node1" class="node"><title>Node0</title>
<polygon fill="#bfbfbf" stroke="black" points="56.521,-0.5 56.521,-74.5 237.316,-74.5 237.316,-0.5 56.521,-0.5"/>
<text text-anchor="start" x="64.521" y="-62.5" font-family="Helvetica,sans-Serif" font-size="10.00">DetectorGraph::ResumeFrom</text>
<text text-anchor="middle" x="146.918" y="-52.5" font-family="Helvetica,sans-Serif" font-size="10.00">SnapshotTopicState</text>
<polyline fill="none" stroke="black" points="56.521,-46.5 237.316,-46.5 "/>
<text text-anchor="middle" x="146.918" y="-34.5" font-family="Helvetica,sans-Serif" font-size="10.00"> </text>
<polyline fill="none" stroke="black" points="56.521,-28.5 237.316,-28.5 "/>
<text text-anchor="start" x="64.521" y="-16.5" font-family="Helvetica,sans-Serif" font-size="10.00">+ ResumeFromSnapshotTopicState()</text>
<text text-anchor="start" x="64.521" y="-6.5" font-family="Helvetica,sans-Serif" font-size="10.00">+ ResumeFromSnapshotTopicState()</text>
</g>
<!-- Node1 -->
<g id="node2" class="node"><title>Node1</title>
<g id="a_node2"><a xlink:href="structDetectorGraph_1_1TopicState.html" target="_top" xlink:title="Base struct for topic data types. ">
<polygon fill="none" stroke="black" points="0,-141.5 0,-235.5 133.837,-235.5 133.837,-141.5 0,-141.5"/>
<text text-anchor="middle" x="66.9185" y="-223.5" font-family="Helvetica,sans-Serif" font-size="10.00">DetectorGraph::TopicState</text>
<polyline fill="none" stroke="black" points="0,-217.5 133.837,-217.5 "/>
<text text-anchor="middle" x="66.9185" y="-205.5" font-family="Helvetica,sans-Serif" font-size="10.00"> </text>
<polyline fill="none" stroke="black" points="0,-199.5 133.837,-199.5 "/>
<text text-anchor="start" x="8" y="-187.5" font-family="Helvetica,sans-Serif" font-size="10.00">+ TopicState()</text>
<text text-anchor="start" x="8" y="-177.5" font-family="Helvetica,sans-Serif" font-size="10.00">+ ~TopicState()</text>
<text text-anchor="start" x="8" y="-167.5" font-family="Helvetica,sans-Serif" font-size="10.00">+ GetName()</text>
<text text-anchor="start" x="8" y="-157.5" font-family="Helvetica,sans-Serif" font-size="10.00">+ GetId()</text>
<text text-anchor="start" x="8" y="-147.5" font-family="Helvetica,sans-Serif" font-size="10.00">+ GetId()</text>
</a>
</g>
</g>
<!-- Node1&#45;&gt;Node0 -->
<g id="edge1" class="edge"><title>Node1&#45;&gt;Node0</title>
<path fill="none" stroke="midnightblue" d="M96.5929,-132.231C106.876,-113.078 118.137,-92.105 127.395,-74.8631"/>
<polygon fill="none" stroke="midnightblue" points="93.4393,-130.706 91.7924,-141.172 99.6065,-134.017 93.4393,-130.706"/>
</g>
<!-- Node2 -->
<g id="node3" class="node"><title>Node2</title>
<g id="a_node3"><a xlink:href="classDetectorGraph_1_1StateSnapshot.html" target="_top" xlink:title="The collection of TopicStates that represents the graph state so far. ">
<polygon fill="none" stroke="black" points="151.544,-121.5 151.544,-255.5 304.292,-255.5 304.292,-121.5 151.544,-121.5"/>
<text text-anchor="middle" x="227.918" y="-243.5" font-family="Helvetica,sans-Serif" font-size="10.00">DetectorGraph::StateSnapshot</text>
<polyline fill="none" stroke="black" points="151.544,-237.5 304.292,-237.5 "/>
<text text-anchor="middle" x="227.918" y="-225.5" font-family="Helvetica,sans-Serif" font-size="10.00"> </text>
<polyline fill="none" stroke="black" points="151.544,-219.5 304.292,-219.5 "/>
<text text-anchor="start" x="159.544" y="-207.5" font-family="Helvetica,sans-Serif" font-size="10.00">+ StateSnapshot()</text>
<text text-anchor="start" x="159.544" y="-197.5" font-family="Helvetica,sans-Serif" font-size="10.00">+ StateSnapshot()</text>
<text text-anchor="start" x="159.544" y="-187.5" font-family="Helvetica,sans-Serif" font-size="10.00">+ StateSnapshot()</text>
<text text-anchor="start" x="159.544" y="-177.5" font-family="Helvetica,sans-Serif" font-size="10.00">+ ~StateSnapshot()</text>
<text text-anchor="start" x="159.544" y="-167.5" font-family="Helvetica,sans-Serif" font-size="10.00">+ GetState()</text>
<text text-anchor="start" x="159.544" y="-157.5" font-family="Helvetica,sans-Serif" font-size="10.00">+ GetState()</text>
<text text-anchor="start" x="159.544" y="-147.5" font-family="Helvetica,sans-Serif" font-size="10.00">+ GetMapSize()</text>
<text text-anchor="start" x="159.544" y="-137.5" font-family="Helvetica,sans-Serif" font-size="10.00">+ GetStateVersion()</text>
<text text-anchor="start" x="159.544" y="-127.5" font-family="Helvetica,sans-Serif" font-size="10.00">+ GetTopicStates()</text>
</a>
</g>
</g>
<!-- Node2&#45;&gt;Node0 -->
<g id="edge2" class="edge"><title>Node2&#45;&gt;Node0</title>
<path fill="none" stroke="#404040" d="M191.919,-121.279C185.323,-109.145 178.566,-96.7155 172.359,-85.2979"/>
<polygon fill="none" stroke="#404040" points="172.331,-85.2468 165.951,-81.8858 166.6,-74.704 172.98,-78.0649 172.331,-85.2468"/>
<text text-anchor="middle" x="205.521" y="-95" font-family="Helvetica,sans-Serif" font-size="10.00"> +snapshot</text>
</g>
</g>
</svg>
