<?xml version="1.0" encoding="UTF-8" standalone="no"?>
<!DOCTYPE svg PUBLIC "-//W3C//DTD SVG 1.1//EN"
 "http://www.w3.org/Graphics/SVG/1.1/DTD/svg11.dtd">
<!-- Generated by graphviz version 2.38.0 (20140413.2041)
 -->
<!-- Title: DetectorGraph::TestSplitterTrigger&lt; OutA, OutB &gt; Pages: 1 -->
<svg width="280pt" height="214pt"
 viewBox="0.00 0.00 279.89 214.00" xmlns="http://www.w3.org/2000/svg" xmlns:xlink="http://www.w3.org/1999/xlink">
<g id="graph0" class="graph" transform="scale(1 1) rotate(0) translate(4 210)">
<title>DetectorGraph::TestSplitterTrigger&lt; OutA, OutB &gt;</title>
<!-- Node0 -->
<g id="node1" class="node"><title>Node0</title>
<polygon fill="#bfbfbf" stroke="black" points="70.6157,-0.5 70.6157,-74.5 207.221,-74.5 207.221,-0.5 70.6157,-0.5"/>
<text text-anchor="start" x="78.6157" y="-62.5" font-family="Helvetica,sans-Serif" font-size="10.00">DetectorGraph::TestSplitter</text>
<text text-anchor="middle" x="138.918" y="-52.5" font-family="Helvetica,sans-Serif" font-size="10.00">Trigger&lt; OutA, OutB &gt;</text>
<polyline fill="none" stroke="black" points="70.6157,-46.5 207.221,-46.5 "/>
<text text-anchor="middle" x="138.918" y="-34.5" font-family="Helvetica,sans-Serif" font-size="10.00"> </text>
<polyline fill="none" stroke="black" points="70.6157,-28.5 207.221,-28.5 "/>
<text text-anchor="start" x="78.6157" y="-16.5" font-family="Helvetica,sans-Serif" font-size="10.00">+ TestSplitterTrigger()</text>
<text text-anchor="start" x="78.6157" y="-6.5" font-family="Helvetica,sans-Serif" font-size="10.00">+ TestSplitterTrigger()</text>
</g>
<!-- Node1 -->
<g id="node2" class="node"><title>Node1</title>
<g id="a_node2"><a xlink:href="structDetectorGraph_1_1TopicState.html" target="_top" xlink:title="Base struct for topic data types. ">
<polygon fill="none" stroke="black" points="0,-111.5 0,-205.5 133.837,-205.5 133.837,-111.5 0,-111.5"/>
<text text-anchor="middle" x="66.9185" y="-193.5" font-family="Helvetica,sans-Serif" font-size="10.00">DetectorGraph::TopicState</text>
<polyline fill="none" stroke="black" points="0,-187.5 133.837,-187.5 "/>
<text text-anchor="middle" x="66.9185" y="-175.5" font-family="Helvetica,sans-Serif" font-size="10.00"> </text>
<polyline fill="none" stroke="black" points="0,-169.5 133.837,-169.5 "/>
<text text-anchor="start" x="8" y="-157.5" font-family="Helvetica,sans-Serif" font-size="10.00">+ TopicState()</text>
<text text-anchor="start" x="8" y="-147.5" font-family="Helvetica,sans-Serif" font-size="10.00">+ ~TopicState()</text>
<text text-anchor="start" x="8" y="-137.5" font-family="Helvetica,sans-Serif" font-size="10.00">+ GetName()</text>
<text text-anchor="start" x="8" y="-127.5" font-family="Helvetica,sans-Serif" font-size="10.00">+ GetId()</text>
<text text-anchor="start" x="8" y="-117.5" font-family="Helvetica,sans-Serif" font-size="10.00">+ GetId()</text>
</a>
</g>
</g>
<!-- Node1&#45;&gt;Node0 -->
<g id="edge1" class="edge"><title>Node1&#45;&gt;Node0</title>
<path fill="none" stroke="midnightblue" d="M99.993,-102.835C105.745,-93.328 111.598,-83.6552 116.958,-74.7961"/>
<polygon fill="none" stroke="midnightblue" points="96.9377,-101.124 94.7555,-111.491 102.927,-104.747 96.9377,-101.124"/>
</g>
<!-- Node2 -->
<g id="node3" class="node"><title>Node2</title>
<polygon fill="none" stroke="#bfbfbf" points="151.948,-131.5 151.948,-185.5 271.889,-185.5 271.889,-131.5 151.948,-131.5"/>
<text text-anchor="middle" x="211.918" y="-173.5" font-family="Helvetica,sans-Serif" font-size="10.00">std::pair&lt; OutA, OutB &gt;</text>
<polyline fill="none" stroke="#bfbfbf" points="151.948,-167.5 271.889,-167.5 "/>
<text text-anchor="middle" x="211.918" y="-155.5" font-family="Helvetica,sans-Serif" font-size="10.00"> </text>
<polyline fill="none" stroke="#bfbfbf" points="151.948,-149.5 271.889,-149.5 "/>
<text text-anchor="middle" x="211.918" y="-137.5" font-family="Helvetica,sans-Serif" font-size="10.00"> </text>
</g>
<!-- Node2&#45;&gt;Node0 -->
<g id="edge2" class="edge"><title>Node2&#45;&gt;Node0</title>
<path fill="none" stroke="midnightblue" d="M190.411,-122.439C181.237,-107.485 170.534,-90.0373 161.27,-74.9354"/>
<polygon fill="none" stroke="midnightblue" points="187.686,-124.691 195.898,-131.385 193.653,-121.031 187.686,-124.691"/>
</g>
</g>
</svg>
